<svg class="rich-terminal" viewBox="0 0 1482 928.4" xmlns="http://www.w3.org/2000/svg">
    <!-- Generated with Rich https://www.textualize.io -->
    <style>

    @font-face {
        font-family: "Fira Code";
        src: local("FiraCode-Regular"),
                url("https://cdnjs.cloudflare.com/ajax/libs/firacode/6.2.0/woff2/FiraCode-Regular.woff2") format("woff2"),
                url("https://cdnjs.cloudflare.com/ajax/libs/firacode/6.2.0/woff/FiraCode-Regular.woff") format("woff");
        font-style: normal;
        font-weight: 400;
    }
    @font-face {
        font-family: "Fira Code";
        src: local("FiraCode-Bold"),
                url("https://cdnjs.cloudflare.com/ajax/libs/firacode/6.2.0/woff2/FiraCode-Bold.woff2") format("woff2"),
                url("https://cdnjs.cloudflare.com/ajax/libs/firacode/6.2.0/woff/FiraCode-Bold.woff") format("woff");
        font-style: bold;
        font-weight: 700;
    }

    .terminal-644736484-matrix {
        font-family: Fira Code, monospace;
        font-size: 20px;
        line-height: 24.4px;
        font-variant-east-asian: full-width;
    }

    .terminal-644736484-title {
        font-size: 18px;
        font-weight: bold;
        font-family: arial;
    }

    .terminal-644736484-r1 { fill: #e0e0e0 }
.terminal-644736484-r2 { fill: #4a4a4a;font-weight: bold }
.terminal-644736484-r3 { fill: #4a4a4a }
.terminal-644736484-r4 { fill: #c5c8c6 }
.terminal-644736484-r5 { fill: #646464;font-weight: bold }
.terminal-644736484-r6 { fill: #646464 }
.terminal-644736484-r7 { fill: #0a0f13 }
.terminal-644736484-r8 { fill: #00ff00 }
.terminal-644736484-r9 { fill: #000000 }
.terminal-644736484-r10 { fill: #121212 }
.terminal-644736484-r11 { fill: #6d7479 }
.terminal-644736484-r12 { fill: #e0e0e0;font-weight: bold }
.terminal-644736484-r13 { fill: #141f27 }
.terminal-644736484-r14 { fill: #98a7b2 }
.terminal-644736484-r15 { fill: #9a9ea1 }
.terminal-644736484-r16 { fill: #704d1c }
.terminal-644736484-r17 { fill: #63696e;font-weight: bold }
.terminal-644736484-r18 { fill: #704d1c;font-weight: bold }
.terminal-644736484-r19 { fill: #282b2e }
    </style>

    <defs>
    <clipPath id="terminal-644736484-clip-terminal">
      <rect x="0" y="0" width="1463.0" height="877.4" />
    </clipPath>
    <clipPath id="terminal-644736484-line-0">
    <rect x="0" y="1.5" width="1464" height="24.65"/>
            </clipPath>
<clipPath id="terminal-644736484-line-1">
    <rect x="0" y="25.9" width="1464" height="24.65"/>
            </clipPath>
<clipPath id="terminal-644736484-line-2">
    <rect x="0" y="50.3" width="1464" height="24.65"/>
            </clipPath>
<clipPath id="terminal-644736484-line-3">
    <rect x="0" y="74.7" width="1464" height="24.65"/>
            </clipPath>
<clipPath id="terminal-644736484-line-4">
    <rect x="0" y="99.1" width="1464" height="24.65"/>
            </clipPath>
<clipPath id="terminal-644736484-line-5">
    <rect x="0" y="123.5" width="1464" height="24.65"/>
            </clipPath>
<clipPath id="terminal-644736484-line-6">
    <rect x="0" y="147.9" width="1464" height="24.65"/>
            </clipPath>
<clipPath id="terminal-644736484-line-7">
    <rect x="0" y="172.3" width="1464" height="24.65"/>
            </clipPath>
<clipPath id="terminal-644736484-line-8">
    <rect x="0" y="196.7" width="1464" height="24.65"/>
            </clipPath>
<clipPath id="terminal-644736484-line-9">
    <rect x="0" y="221.1" width="1464" height="24.65"/>
            </clipPath>
<clipPath id="terminal-644736484-line-10">
    <rect x="0" y="245.5" width="1464" height="24.65"/>
            </clipPath>
<clipPath id="terminal-644736484-line-11">
    <rect x="0" y="269.9" width="1464" height="24.65"/>
            </clipPath>
<clipPath id="terminal-644736484-line-12">
    <rect x="0" y="294.3" width="1464" height="24.65"/>
            </clipPath>
<clipPath id="terminal-644736484-line-13">
    <rect x="0" y="318.7" width="1464" height="24.65"/>
            </clipPath>
<clipPath id="terminal-644736484-line-14">
    <rect x="0" y="343.1" width="1464" height="24.65"/>
            </clipPath>
<clipPath id="terminal-644736484-line-15">
    <rect x="0" y="367.5" width="1464" height="24.65"/>
            </clipPath>
<clipPath id="terminal-644736484-line-16">
    <rect x="0" y="391.9" width="1464" height="24.65"/>
            </clipPath>
<clipPath id="terminal-644736484-line-17">
    <rect x="0" y="416.3" width="1464" height="24.65"/>
            </clipPath>
<clipPath id="terminal-644736484-line-18">
    <rect x="0" y="440.7" width="1464" height="24.65"/>
            </clipPath>
<clipPath id="terminal-644736484-line-19">
    <rect x="0" y="465.1" width="1464" height="24.65"/>
            </clipPath>
<clipPath id="terminal-644736484-line-20">
    <rect x="0" y="489.5" width="1464" height="24.65"/>
            </clipPath>
<clipPath id="terminal-644736484-line-21">
    <rect x="0" y="513.9" width="1464" height="24.65"/>
            </clipPath>
<clipPath id="terminal-644736484-line-22">
    <rect x="0" y="538.3" width="1464" height="24.65"/>
            </clipPath>
<clipPath id="terminal-644736484-line-23">
    <rect x="0" y="562.7" width="1464" height="24.65"/>
            </clipPath>
<clipPath id="terminal-644736484-line-24">
    <rect x="0" y="587.1" width="1464" height="24.65"/>
            </clipPath>
<clipPath id="terminal-644736484-line-25">
    <rect x="0" y="611.5" width="1464" height="24.65"/>
            </clipPath>
<clipPath id="terminal-644736484-line-26">
    <rect x="0" y="635.9" width="1464" height="24.65"/>
            </clipPath>
<clipPath id="terminal-644736484-line-27">
    <rect x="0" y="660.3" width="1464" height="24.65"/>
            </clipPath>
<clipPath id="terminal-644736484-line-28">
    <rect x="0" y="684.7" width="1464" height="24.65"/>
            </clipPath>
<clipPath id="terminal-644736484-line-29">
    <rect x="0" y="709.1" width="1464" height="24.65"/>
            </clipPath>
<clipPath id="terminal-644736484-line-30">
    <rect x="0" y="733.5" width="1464" height="24.65"/>
            </clipPath>
<clipPath id="terminal-644736484-line-31">
    <rect x="0" y="757.9" width="1464" height="24.65"/>
            </clipPath>
<clipPath id="terminal-644736484-line-32">
    <rect x="0" y="782.3" width="1464" height="24.65"/>
            </clipPath>
<clipPath id="terminal-644736484-line-33">
    <rect x="0" y="806.7" width="1464" height="24.65"/>
            </clipPath>
<clipPath id="terminal-644736484-line-34">
    <rect x="0" y="831.1" width="1464" height="24.65"/>
            </clipPath>
    </defs>

    <rect fill="#292929" stroke="rgba(255,255,255,0.35)" stroke-width="1" x="1" y="1" width="1480" height="926.4" rx="8"/><text class="terminal-644736484-title" fill="#c5c8c6" text-anchor="middle" x="740" y="27">Reason&#160;Commons</text>
            <g transform="translate(26,22)">
            <circle cx="0" cy="0" r="7" fill="#ff5f57"/>
            <circle cx="22" cy="0" r="7" fill="#febc2e"/>
            <circle cx="44" cy="0" r="7" fill="#28c840"/>
            </g>
        
    <g transform="translate(9, 41)" clip-path="url(#terminal-644736484-clip-terminal)">
    <rect fill="#121212" x="0" y="1.5" width="12.2" height="24.65" shape-rendering="crispEdges"/><rect fill="#121212" x="12.2" y="1.5" width="427" height="24.65" shape-rendering="crispEdges"/><rect fill="#121212" x="439.2" y="1.5" width="756.4" height="24.65" shape-rendering="crispEdges"/><rect fill="#121212" x="1195.6" y="1.5" width="256.2" height="24.65" shape-rendering="crispEdges"/><rect fill="#121212" x="1451.8" y="1.5" width="12.2" height="24.65" shape-rendering="crispEdges"/><rect fill="#151515" x="0" y="25.9" width="12.2" height="24.65" shape-rendering="crispEdges"/><rect fill="#151515" x="12.2" y="25.9" width="85.4" height="24.65" shape-rendering="crispEdges"/><rect fill="#151515" x="97.6" y="25.9" width="12.2" height="24.65" shape-rendering="crispEdges"/><rect fill="#151515" x="109.8" y="25.9" width="1329.8" height="24.65" shape-rendering="crispEdges"/><rect fill="#151515" x="1439.6" y="25.9" width="12.2" height="24.65" shape-rendering="crispEdges"/><rect fill="#151515" x="1451.8" y="25.9" width="12.2" height="24.65" shape-rendering="crispEdges"/><rect fill="#151515" x="0" y="50.3" width="12.2" height="24.65" shape-rendering="crispEdges"/><rect fill="#151515" x="12.2" y="50.3" width="97.6" height="24.65" shape-rendering="crispEdges"/><rect fill="#151515" x="109.8" y="50.3" width="1329.8" height="24.65" shape-rendering="crispEdges"/><rect fill="#151515" x="1439.6" y="50.3" width="12.2" height="24.65" shape-rendering="crispEdges"/><rect fill="#151515" x="1451.8" y="50.3" width="12.2" height="24.65" shape-rendering="crispEdges"/><rect fill="#141f27" x="0" y="74.7" width="12.2" height="24.65" shape-rendering="crispEdges"/><rect fill="#141f27" x="12.2" y="74.7" width="1439.6" height="24.65" shape-rendering="crispEdges"/><rect fill="#141f27" x="1451.8" y="74.7" width="12.2" height="24.65" shape-rendering="crispEdges"/><rect fill="#141f27" x="0" y="99.1" width="12.2" height="24.65" shape-rendering="crispEdges"/><rect fill="#141f27" x="12.2" y="99.1" width="36.6" height="24.65" shape-rendering="crispEdges"/><rect fill="#141f27" x="48.8" y="99.1" width="12.2" height="24.65" shape-rendering="crispEdges"/><rect fill="#141f27" x="61" y="99.1" width="1378.6" height="24.65" shape-rendering="crispEdges"/><rect fill="#141f27" x="1439.6" y="99.1" width="12.2" height="24.65" shape-rendering="crispEdges"/><rect fill="#141f27" x="1451.8" y="99.1" width="12.2" height="24.65" shape-rendering="crispEdges"/><rect fill="#141f27" x="0" y="123.5" width="12.2" height="24.65" shape-rendering="crispEdges"/><rect fill="#141f27" x="12.2" y="123.5" width="12.2" height="24.65" shape-rendering="crispEdges"/><rect fill="#141f27" x="24.4" y="123.5" width="24.4" height="24.65" shape-rendering="crispEdges"/><rect fill="#141f27" x="48.8" y="123.5" width="12.2" height="24.65" shape-rendering="crispEdges"/><rect fill="#e0e0e0" x="61" y="123.5" width="12.2" height="24.65" shape-rendering="crispEdges"/><rect fill="#141f27" x="73.2" y="123.5" width="231.8" height="24.65" shape-rendering="crispEdges"/><rect fill="#141f27" x="305" y="123.5" width="1134.6" height="24.65" shape-rendering="crispEdges"/><rect fill="#141f27" x="1439.6" y="123.5" width="12.2" height="24.65" shape-rendering="crispEdges"/><rect fill="#141f27" x="1451.8" y="123.5" width="12.2" height="24.65" shape-rendering="crispEdges"/><rect fill="#141f27" x="0" y="147.9" width="12.2" height="24.65" shape-rendering="crispEdges"/><rect fill="#141f27" x="12.2" y="147.9" width="12.2" height="24.65" shape-rendering="crispEdges"/><rect fill="#141f27" x="24.4" y="147.9" width="24.4" height="24.65" shape-rendering="crispEdges"/><rect fill="#141f27" x="48.8" y="147.9" width="12.2" height="24.65" shape-rendering="crispEdges"/><rect fill="#141f27" x="61" y="147.9" width="1378.6" height="24.65" shape-rendering="crispEdges"/><rect fill="#141f27" x="1439.6" y="147.9" width="12.2" height="24.65" shape-rendering="crispEdges"/><rect fill="#141f27" x="1451.8" y="147.9" width="12.2" height="24.65" shape-rendering="crispEdges"/><rect fill="#141f27" x="0" y="172.3" width="1464" height="24.65" shape-rendering="crispEdges"/><rect fill="#0e395a" x="0" y="196.7" width="24.4" height="24.65" shape-rendering="crispEdges"/><rect fill="#0e395a" x="24.4" y="196.7" width="341.6" height="24.65" shape-rendering="crispEdges"/><rect fill="#0e395a" x="366" y="196.7" width="1049.2" height="24.65" shape-rendering="crispEdges"/><rect fill="#0e395a" x="1415.2" y="196.7" width="24.4" height="24.65" shape-rendering="crispEdges"/><rect fill="#003054" x="1439.6" y="196.7" width="24.4" height="24.65" shape-rendering="crispEdges"/><rect fill="#0e395a" x="0" y="221.1" width="24.4" height="24.65" shape-rendering="crispEdges"/><rect fill="#0e395a" x="24.4" y="221.1" width="378.2" height="24.65" shape-rendering="crispEdges"/><rect fill="#0e395a" x="402.6" y="221.1" width="1012.6" height="24.65" shape-rendering="crispEdges"/><rect fill="#0e395a" x="1415.2" y="221.1" width="24.4" height="24.65" shape-rendering="crispEdges"/><rect fill="#003054" x="1439.6" y="221.1" width="24.4" height="24.65" shape-rendering="crispEdges"/><rect fill="#141f27" x="0" y="245.5" width="24.4" height="24.65" shape-rendering="crispEdges"/><rect fill="#141f27" x="24.4" y="245.5" width="353.8" height="24.65" shape-rendering="crispEdges"/><rect fill="#141f27" x="378.2" y="245.5" width="1037" height="24.65" shape-rendering="crispEdges"/><rect fill="#141f27" x="1415.2" y="245.5" width="24.4" height="24.65" shape-rendering="crispEdges"/><rect fill="#003054" x="1439.6" y="245.5" width="24.4" height="24.65" shape-rendering="crispEdges"/><rect fill="#141f27" x="0" y="269.9" width="24.4" height="24.65" shape-rendering="crispEdges"/><rect fill="#141f27" x="24.4" y="269.9" width="378.2" height="24.65" shape-rendering="crispEdges"/><rect fill="#141f27" x="402.6" y="269.9" width="1012.6" height="24.65" shape-rendering="crispEdges"/><rect fill="#141f27" x="1415.2" y="269.9" width="24.4" height="24.65" shape-rendering="crispEdges"/><rect fill="#003054" x="1439.6" y="269.9" width="24.4" height="24.65" shape-rendering="crispEdges"/><rect fill="#141f27" x="0" y="294.3" width="24.4" height="24.65" shape-rendering="crispEdges"/><rect fill="#141f27" x="24.4" y="294.3" width="256.2" height="24.65" shape-rendering="crispEdges"/><rect fill="#141f27" x="280.6" y="294.3" width="1134.6" height="24.65" shape-rendering="crispEdges"/><rect fill="#141f27" x="1415.2" y="294.3" width="24.4" height="24.65" shape-rendering="crispEdges"/><rect fill="#003054" x="1439.6" y="294.3" width="24.4" height="24.65" shape-rendering="crispEdges"/><rect fill="#141f27" x="0" y="318.7" width="24.4" height="24.65" shape-rendering="crispEdges"/><rect fill="#141f27" x="24.4" y="318.7" width="414.8" height="24.65" shape-rendering="crispEdges"/><rect fill="#141f27" x="439.2" y="318.7" width="976" height="24.65" shape-rendering="crispEdges"/><rect fill="#141f27" x="1415.2" y="318.7" width="24.4" height="24.65" shape-rendering="crispEdges"/><rect fill="#003054" x="1439.6" y="318.7" width="24.4" height="24.65" shape-rendering="crispEdges"/><rect fill="#141f27" x="0" y="343.1" width="24.4" height="24.65" shape-rendering="crispEdges"/><rect fill="#141f27" x="24.4" y="343.1" width="134.2" height="24.65" shape-rendering="crispEdges"/><rect fill="#141f27" x="158.6" y="343.1" width="1256.6" height="24.65" shape-rendering="crispEdges"/><rect fill="#141f27" x="1415.2" y="343.1" width="24.4" height="24.65" shape-rendering="crispEdges"/><rect fill="#003054" x="1439.6" y="343.1" width="24.4" height="24.65" shape-rendering="crispEdges"/><rect fill="#141f27" x="0" y="367.5" width="24.4" height="24.65" shape-rendering="crispEdges"/><rect fill="#141f27" x="24.4" y="367.5" width="402.6" height="24.65" shape-rendering="crispEdges"/><rect fill="#141f27" x="427" y="367.5" width="988.2" height="24.65" shape-rendering="crispEdges"/><rect fill="#141f27" x="1415.2" y="367.5" width="24.4" height="24.65" shape-rendering="crispEdges"/><rect fill="#003054" x="1439.6" y="367.5" width="24.4" height="24.65" shape-rendering="crispEdges"/><rect fill="#141f27" x="0" y="391.9" width="24.4" height="24.65" shape-rendering="crispEdges"/><rect fill="#141f27" x="24.4" y="391.9" width="146.4" height="24.65" shape-rendering="crispEdges"/><rect fill="#141f27" x="170.8" y="391.9" width="1244.4" height="24.65" shape-rendering="crispEdges"/><rect fill="#141f27" x="1415.2" y="391.9" width="24.4" height="24.65" shape-rendering="crispEdges"/><rect fill="#003054" x="1439.6" y="391.9" width="24.4" height="24.65" shape-rendering="crispEdges"/><rect fill="#141f27" x="0" y="416.3" width="24.4" height="24.65" shape-rendering="crispEdges"/><rect fill="#141f27" x="24.4" y="416.3" width="439.2" height="24.65" shape-rendering="crispEdges"/><rect fill="#141f27" x="463.6" y="416.3" width="951.6" height="24.65" shape-rendering="crispEdges"/><rect fill="#141f27" x="1415.2" y="416.3" width="24.4" height="24.65" shape-rendering="crispEdges"/><rect fill="#003054" x="1439.6" y="416.3" width="24.4" height="24.65" shape-rendering="crispEdges"/><rect fill="#141f27" x="0" y="440.7" width="24.4" height="24.65" shape-rendering="crispEdges"/><rect fill="#141f27" x="24.4" y="440.7" width="48.8" height="24.65" shape-rendering="crispEdges"/><rect fill="#141f27" x="73.2" y="440.7" width="1342" height="24.65" shape-rendering="crispEdges"/><rect fill="#141f27" x="1415.2" y="440.7" width="24.4" height="24.65" shape-rendering="crispEdges"/><rect fill="#003054" x="1439.6" y="440.7" width="24.4" height="24.65" shape-rendering="crispEdges"/><rect fill="#141f27" x="0" y="465.1" width="24.4" height="24.65" shape-rendering="crispEdges"/><rect fill="#141f27" x="24.4" y="465.1" width="390.4" height="24.65" shape-rendering="crispEdges"/><rect fill="#141f27" x="414.8" y="465.1" width="1000.4" height="24.65" shape-rendering="crispEdges"/><rect fill="#141f27" x="1415.2" y="465.1" width="24.4" height="24.65" shape-rendering="crispEdges"/><rect fill="#000000" x="1439.6" y="465.1" width="24.4" height="24.65" shape-rendering="crispEdges"/><rect fill="#141f27" x="0" y="489.5" width="24.4" height="24.65" shape-rendering="crispEdges"/><rect fill="#141f27" x="24.4" y="489.5" width="219.6" height="24.65" shape-rendering="crispEdges"/><rect fill="#141f27" x="244" y="489.5" width="1171.2" height="24.65" shape-rendering="crispEdges"/><rect fill="#141f27" x="1415.2" y="489.5" width="24.4" height="24.65" shape-rendering="crispEdges"/><rect fill="#000000" x="1439.6" y="489.5" width="24.4" height="24.65" shape-rendering="crispEdges"/><rect fill="#141f27" x="0" y="513.9" width="24.4" height="24.65" shape-rendering="crispEdges"/><rect fill="#141f27" x="24.4" y="513.9" width="536.8" height="24.65" shape-rendering="crispEdges"/><rect fill="#141f27" x="561.2" y="513.9" width="854" height="24.65" shape-rendering="crispEdges"/><rect fill="#141f27" x="1415.2" y="513.9" width="24.4" height="24.65" shape-rendering="crispEdges"/><rect fill="#000000" x="1439.6" y="513.9" width="24.4" height="24.65" shape-rendering="crispEdges"/><rect fill="#141f27" x="0" y="538.3" width="24.4" height="24.65" shape-rendering="crispEdges"/><rect fill="#141f27" x="24.4" y="538.3" width="146.4" height="24.65" shape-rendering="crispEdges"/><rect fill="#141f27" x="170.8" y="538.3" width="1244.4" height="24.65" shape-rendering="crispEdges"/><rect fill="#141f27" x="1415.2" y="538.3" width="24.4" height="24.65" shape-rendering="crispEdges"/><rect fill="#000000" x="1439.6" y="538.3" width="24.4" height="24.65" shape-rendering="crispEdges"/><rect fill="#141f27" x="0" y="562.7" width="24.4" height="24.65" shape-rendering="crispEdges"/><rect fill="#141f27" x="24.4" y="562.7" width="451.4" height="24.65" shape-rendering="crispEdges"/><rect fill="#141f27" x="475.8" y="562.7" width="939.4" height="24.65" shape-rendering="crispEdges"/><rect fill="#141f27" x="1415.2" y="562.7" width="24.4" height="24.65" shape-rendering="crispEdges"/><rect fill="#000000" x="1439.6" y="562.7" width="24.4" height="24.65" shape-rendering="crispEdges"/><rect fill="#141f27" x="0" y="587.1" width="24.4" height="24.65" shape-rendering="crispEdges"/><rect fill="#141f27" x="24.4" y="587.1" width="134.2" height="24.65" shape-rendering="crispEdges"/><rect fill="#141f27" x="158.6" y="587.1" width="1256.6" height="24.65" shape-rendering="crispEdges"/><rect fill="#141f27" x="1415.2" y="587.1" width="24.4" height="24.65" shape-rendering="crispEdges"/><rect fill="#000000" x="1439.6" y="587.1" width="24.4" height="24.65" shape-rendering="crispEdges"/><rect fill="#141f27" x="0" y="611.5" width="24.4" height="24.65" shape-rendering="crispEdges"/><rect fill="#141f27" x="24.4" y="611.5" width="622.2" height="24.65" shape-rendering="crispEdges"/><rect fill="#141f27" x="646.6" y="611.5" width="768.6" height="24.65" shape-rendering="crispEdges"/><rect fill="#141f27" x="1415.2" y="611.5" width="24.4" height="24.65" shape-rendering="crispEdges"/><rect fill="#000000" x="1439.6" y="611.5" width="24.4" height="24.65" shape-rendering="crispEdges"/><rect fill="#141f27" x="0" y="635.9" width="24.4" height="24.65" shape-rendering="crispEdges"/><rect fill="#141f27" x="24.4" y="635.9" width="158.6" height="24.65" shape-rendering="crispEdges"/><rect fill="#141f27" x="183" y="635.9" width="1232.2" height="24.65" shape-rendering="crispEdges"/><rect fill="#141f27" x="1415.2" y="635.9" width="24.4" height="24.65" shape-rendering="crispEdges"/><rect fill="#000000" x="1439.6" y="635.9" width="24.4" height="24.65" shape-rendering="crispEdges"/><rect fill="#141f27" x="0" y="660.3" width="24.4" height="24.65" shape-rendering="crispEdges"/><rect fill="#141f27" x="24.4" y="660.3" width="414.8" height="24.65" shape-rendering="crispEdges"/><rect fill="#141f27" x="439.2" y="660.3" width="976" height="24.65" shape-rendering="crispEdges"/><rect fill="#141f27" x="1415.2" y="660.3" width="24.4" height="24.65" shape-rendering="crispEdges"/><rect fill="#000000" x="1439.6" y="660.3" width="24.4" height="24.65" shape-rendering="crispEdges"/><rect fill="#141f27" x="0" y="684.7" width="24.4" height="24.65" shape-rendering="crispEdges"/><rect fill="#141f27" x="24.4" y="684.7" width="134.2" height="24.65" shape-rendering="crispEdges"/><rect fill="#141f27" x="158.6" y="684.7" width="1256.6" height="24.65" shape-rendering="crispEdges"/><rect fill="#141f27" x="1415.2" y="684.7" width="24.4" height="24.65" shape-rendering="crispEdges"/><rect fill="#000000" x="1439.6" y="684.7" width="24.4" height="24.65" shape-rendering="crispEdges"/><rect fill="#141f27" x="0" y="709.1" width="24.4" height="24.65" shape-rendering="crispEdges"/><rect fill="#141f27" x="24.4" y="709.1" width="524.6" height="24.65" shape-rendering="crispEdges"/><rect fill="#141f27" x="549" y="709.1" width="866.2" height="24.65" shape-rendering="crispEdges"/><rect fill="#141f27" x="1415.2" y="709.1" width="24.4" height="24.65" shape-rendering="crispEdges"/><rect fill="#000000" x="1439.6" y="709.1" width="24.4" height="24.65" shape-rendering="crispEdges"/><rect fill="#141f27" x="0" y="733.5" width="24.4" height="24.65" shape-rendering="crispEdges"/><rect fill="#141f27" x="24.4" y="733.5" width="231.8" height="24.65" shape-rendering="crispEdges"/><rect fill="#141f27" x="256.2" y="733.5" width="1159" height="24.65" shape-rendering="crispEdges"/><rect fill="#141f27" x="1415.2" y="733.5" width="24.4" height="24.65" shape-rendering="crispEdges"/><rect fill="#000000" x="1439.6" y="733.5" width="24.4" height="24.65" shape-rendering="crispEdges"/><rect fill="#141f27" x="0" y="757.9" width="1464" height="24.65" shape-rendering="crispEdges"/><rect fill="#121212" x="0" y="782.3" width="12.2" height="24.65" shape-rendering="crispEdges"/><rect fill="#121212" x="12.2" y="782.3" width="12.2" height="24.65" shape-rendering="crispEdges"/><rect fill="#161616" x="24.4" y="782.3" width="12.2" height="24.65" shape-rendering="crispEdges"/><rect fill="#161616" x="36.6" y="782.3" width="1390.8" height="24.65" shape-rendering="crispEdges"/><rect fill="#161616" x="1427.4" y="782.3" width="12.2" height="24.65" shape-rendering="crispEdges"/><rect fill="#121212" x="1439.6" y="782.3" width="12.2" height="24.65" shape-rendering="crispEdges"/><rect fill="#121212" x="1451.8" y="782.3" width="12.2" height="24.65" shape-rendering="crispEdges"/><rect fill="#121212" x="0" y="806.7" width="12.2" height="24.65" shape-rendering="crispEdges"/><rect fill="#121212" x="12.2" y="806.7" width="12.2" height="24.65" shape-rendering="crispEdges"/><rect fill="#0b3a5f" x="24.4" y="806.7" width="12.2" height="24.65" shape-rendering="crispEdges"/><rect fill="#0b3a5f" x="36.6" y="806.7" width="73.2" height="24.65" shape-rendering="crispEdges"/><rect fill="#0b3a5f" x="109.8" y="806.7" width="12.2" height="24.65" shape-rendering="crispEdges"/><rect fill="#121212" x="122" y="806.7" width="12.2" height="24.65" shape-rendering="crispEdges"/><rect fill="#121212" x="134.2" y="806.7" width="170.8" height="24.65" shape-rendering="crispEdges"/><rect fill="#121212" x="305" y="806.7" width="12.2" height="24.65" shape-rendering="crispEdges"/><rect fill="#121212" x="317.2" y="806.7" width="158.6" height="24.65" shape-rendering="crispEdges"/><rect fill="#121212" x="475.8" y="806.7" width="12.2" height="24.65" shape-rendering="crispEdges"/><rect fill="#121212" x="488" y="806.7" width="109.8" height="24.65" shape-rendering="crispEdges"/><rect fill="#121212" x="597.8" y="806.7" width="841.8" height="24.65" shape-rendering="crispEdges"/><rect fill="#121212" x="1439.6" y="806.7" width="12.2" height="24.65" shape-rendering="crispEdges"/><rect fill="#121212" x="1451.8" y="806.7" width="12.2" height="24.65" shape-rendering="crispEdges"/><rect fill="#121212" x="0" y="831.1" width="12.2" height="24.65" shape-rendering="crispEdges"/><rect fill="#121212" x="12.2" y="831.1" width="829.6" height="24.65" shape-rendering="crispEdges"/><rect fill="#121212" x="841.8" y="831.1" width="597.8" height="24.65" shape-rendering="crispEdges"/><rect fill="#121212" x="1439.6" y="831.1" width="12.2" height="24.65" shape-rendering="crispEdges"/><rect fill="#121212" x="1451.8" y="831.1" width="12.2" height="24.65" shape-rendering="crispEdges"/><rect fill="#191d21" x="0" y="855.5" width="48.8" height="24.65" shape-rendering="crispEdges"/><rect fill="#191d21" x="48.8" y="855.5" width="146.4" height="24.65" shape-rendering="crispEdges"/><rect fill="#191d21" x="195.2" y="855.5" width="48.8" height="24.65" shape-rendering="crispEdges"/><rect fill="#191d21" x="244" y="855.5" width="61" height="24.65" shape-rendering="crispEdges"/><rect fill="#191d21" x="305" y="855.5" width="48.8" height="24.65" shape-rendering="crispEdges"/><rect fill="#191d21" x="353.8" y="855.5" width="73.2" height="24.65" shape-rendering="crispEdges"/><rect fill="#191d21" x="427" y="855.5" width="48.8" height="24.65" shape-rendering="crispEdges"/><rect fill="#191d21" x="475.8" y="855.5" width="61" height="24.65" shape-rendering="crispEdges"/><rect fill="#191d21" x="536.8" y="855.5" width="719.8" height="24.65" shape-rendering="crispEdges"/><rect fill="#191d21" x="1256.6" y="855.5" width="12.2" height="24.65" shape-rendering="crispEdges"/><rect fill="#191d21" x="1268.8" y="855.5" width="85.4" height="24.65" shape-rendering="crispEdges"/><rect fill="#191d21" x="1354.2" y="855.5" width="97.6" height="24.65" shape-rendering="crispEdges"/><rect fill="#191d21" x="1451.8" y="855.5" width="12.2" height="24.65" shape-rendering="crispEdges"/>
    <g class="terminal-644736484-matrix">
    <text class="terminal-644736484-r2" x="12.2" y="20" textLength="427" clip-path="url(#terminal-644736484-line-0)">From&#160;open&#160;evening&#160;to&#160;first&#160;practice</text><text class="terminal-644736484-r3" x="439.2" y="20" textLength="756.4" clip-path="url(#terminal-644736484-line-0)">&#160;·&#160;Mira&#160;·&#160;Saved&#160;·&#160;Tests&#160;&#160;&#160;&#160;&#160;&#160;&#160;&#160;&#160;&#160;&#160;&#160;&#160;&#160;&#160;&#160;&#160;&#160;&#160;&#160;&#160;&#160;&#160;&#160;&#160;&#160;&#160;&#160;&#160;&#160;&#160;&#160;&#160;&#160;&#160;&#160;&#160;&#160;&#160;</text><text class="terminal-644736484-r3" x="1195.6" y="20" textLength="256.2" clip-path="url(#terminal-644736484-line-0)">&#160;&#160;&#160;&#160;&#160;&#160;&#160;&#160;Focus:&#160;Answer</text><text class="terminal-644736484-r4" x="1464" y="20" textLength="12.2" clip-path="url(#terminal-644736484-line-0)">
</text><text class="terminal-644736484-r5" x="12.2" y="44.4" textLength="85.4" clip-path="url(#terminal-644736484-line-1)">Goal&#160;&#160;&#160;</text><text class="terminal-644736484-r6" x="109.8" y="44.4" textLength="1329.8" clip-path="url(#terminal-644736484-line-1)">Newcomers&#160;at&#160;our&#160;open&#160;evenings&#160;find&#160;a&#160;clear,&#160;no-pressure&#160;next&#160;step&#160;into&#160;a&#160;first&#160;practice&#160;session,&#160;so&#160;interest</text><text class="terminal-644736484-r4" x="1464" y="44.4" textLength="12.2" clip-path="url(#terminal-644736484-line-1)">
</text><text class="terminal-644736484-r6" x="109.8" y="68.8" textLength="1329.8" clip-path="url(#terminal-644736484-line-2)">turns&#160;into&#160;sustained&#160;practice.&#160;&#160;&#160;&#160;&#160;&#160;&#160;&#160;&#160;&#160;&#160;&#160;&#160;&#160;&#160;&#160;&#160;&#160;&#160;&#160;&#160;&#160;&#160;&#160;&#160;&#160;&#160;&#160;&#160;&#160;&#160;&#160;&#160;&#160;&#160;&#160;&#160;&#160;&#160;&#160;&#160;&#160;&#160;&#160;&#160;&#160;&#160;&#160;&#160;&#160;&#160;&#160;&#160;&#160;&#160;&#160;&#160;&#160;&#160;&#160;&#160;&#160;&#160;&#160;&#160;&#160;&#160;&#160;&#160;&#160;&#160;&#160;&#160;&#160;&#160;&#160;&#160;&#160;&#160;</text><text class="terminal-644736484-r4" x="1464" y="68.8" textLength="12.2" clip-path="url(#terminal-644736484-line-2)">
</text><text class="terminal-644736484-r7" x="0" y="93.2" textLength="12.2" clip-path="url(#terminal-644736484-line-3)">▔</text><text class="terminal-644736484-r7" x="12.2" y="93.2" textLength="1439.6" clip-path="url(#terminal-644736484-line-3)">▔▔▔▔▔▔▔▔▔▔▔▔▔▔▔▔▔▔▔▔▔▔▔▔▔▔▔▔▔▔▔▔▔▔▔▔▔▔▔▔▔▔▔▔▔▔▔▔▔▔▔▔▔▔▔▔▔▔▔▔▔▔▔▔▔▔▔▔▔▔▔▔▔▔▔▔▔▔▔▔▔▔▔▔▔▔▔▔▔▔▔▔▔▔▔▔▔▔▔▔▔▔▔▔▔▔▔▔▔▔▔▔▔▔▔▔▔▔</text><text class="terminal-644736484-r7" x="1451.8" y="93.2" textLength="12.2" clip-path="url(#terminal-644736484-line-3)">▔</text><text class="terminal-644736484-r4" x="1464" y="93.2" textLength="12.2" clip-path="url(#terminal-644736484-line-3)">
</text><text class="terminal-644736484-r4" x="1464" y="117.6" textLength="12.2" clip-path="url(#terminal-644736484-line-4)">
</text><text class="terminal-644736484-r9" x="24.4" y="142" textLength="12.2" clip-path="url(#terminal-644736484-line-5)">🔎</text><text class="terminal-644736484-r10" x="61" y="142" textLength="12.2" clip-path="url(#terminal-644736484-line-5)">S</text><text class="terminal-644736484-r11" x="73.2" y="142" textLength="231.8" clip-path="url(#terminal-644736484-line-5)">earch&#160;for&#160;commands…</text><text class="terminal-644736484-r4" x="1464" y="142" textLength="12.2" clip-path="url(#terminal-644736484-line-5)">
</text><text class="terminal-644736484-r4" x="1464" y="166.4" textLength="12.2" clip-path="url(#terminal-644736484-line-6)">
</text><text class="terminal-644736484-r4" x="1464" y="190.8" textLength="12.2" clip-path="url(#terminal-644736484-line-7)">
</text><text class="terminal-644736484-r12" x="24.4" y="215.2" textLength="341.6" clip-path="url(#terminal-644736484-line-8)">Consultant:&#160;Anthropic&#160;Claude</text><text class="terminal-644736484-r4" x="1464" y="215.2" textLength="12.2" clip-path="url(#terminal-644736484-line-8)">
</text><text class="terminal-644736484-r14" x="24.4" y="239.6" textLength="378.2" clip-path="url(#terminal-644736484-line-9)">Use&#160;this&#160;consultant&#160;from&#160;now&#160;on</text><text class="terminal-644736484-r4" x="1464" y="239.6" textLength="12.2" clip-path="url(#terminal-644736484-line-9)">
</text><text class="terminal-644736484-r12" x="24.4" y="264" textLength="353.8" clip-path="url(#terminal-644736484-line-10)">Consultant:&#160;LM&#160;Studio&#160;(local)</text><text class="terminal-644736484-r4" x="1464" y="264" textLength="12.2" clip-path="url(#terminal-644736484-line-10)">
</text><text class="terminal-644736484-r15" x="24.4" y="288.4" textLength="378.2" clip-path="url(#terminal-644736484-line-11)">Use&#160;this&#160;consultant&#160;from&#160;now&#160;on</text><text class="terminal-644736484-r4" x="1464" y="288.4" textLength="12.2" clip-path="url(#terminal-644736484-line-11)">
</text><text class="terminal-644736484-r12" x="24.4" y="312.8" textLength="256.2" clip-path="url(#terminal-644736484-line-12)">Explain&#160;this&#160;question</text><text class="terminal-644736484-r4" x="1464" y="312.8" textLength="12.2" clip-path="url(#terminal-644736484-line-12)">
</text><text class="terminal-644736484-r15" x="24.4" y="337.2" textLength="414.8" clip-path="url(#terminal-644736484-line-13)">Show&#160;the&#160;saved&#160;explanation&#160;(local)</text><text class="terminal-644736484-r4" x="1464" y="337.2" textLength="12.2" clip-path="url(#terminal-644736484-line-13)">
</text><text class="terminal-644736484-r12" x="24.4" y="361.6" textLength="134.2" clip-path="url(#terminal-644736484-line-14)">Export&#160;case</text><text class="terminal-644736484-r4" x="1464" y="361.6" textLength="12.2" clip-path="url(#terminal-644736484-line-14)">
</text><text class="terminal-644736484-r15" x="24.4" y="386" textLength="402.6" clip-path="url(#terminal-644736484-line-15)">Write&#160;a&#160;portable&#160;.reasoncase&#160;copy</text><text class="terminal-644736484-r4" x="1464" y="386" textLength="12.2" clip-path="url(#terminal-644736484-line-15)">
</text><text class="terminal-644736484-r12" x="24.4" y="410.4" textLength="146.4" clip-path="url(#terminal-644736484-line-16)">Export&#160;trees</text><text class="terminal-644736484-r4" x="1464" y="410.4" textLength="12.2" clip-path="url(#terminal-644736484-line-16)">
</text><text class="terminal-644736484-r15" x="24.4" y="434.8" textLength="439.2" clip-path="url(#terminal-644736484-line-17)">Write&#160;the&#160;trees&#160;to&#160;an&#160;.ltp.yaml&#160;file</text><text class="terminal-644736484-r4" x="1464" y="434.8" textLength="12.2" clip-path="url(#terminal-644736484-line-17)">
</text><text class="terminal-644736484-r12" x="24.4" y="459.2" textLength="48.8" clip-path="url(#terminal-644736484-line-18)">Help</text><text class="terminal-644736484-r9" x="1439.6" y="459.2" textLength="24.4" clip-path="url(#terminal-644736484-line-18)">▆▆</text><text class="terminal-644736484-r4" x="1464" y="459.2" textLength="12.2" clip-path="url(#terminal-644736484-line-18)">
</text><text class="terminal-644736484-r15" x="24.4" y="483.6" textLength="390.4" clip-path="url(#terminal-644736484-line-19)">Keys&#160;and&#160;how&#160;the&#160;loop&#160;works&#160;(F1)</text><text class="terminal-644736484-r4" x="1464" y="483.6" textLength="12.2" clip-path="url(#terminal-644736484-line-19)">
</text><text class="terminal-644736484-r12" x="24.4" y="508" textLength="219.6" clip-path="url(#terminal-644736484-line-20)">History:&#160;step&#160;back</text><text class="terminal-644736484-r4" x="1464" y="508" textLength="12.2" clip-path="url(#terminal-644736484-line-20)">
</text><text class="terminal-644736484-r15" x="24.4" y="532.4" textLength="536.8" clip-path="url(#terminal-644736484-line-21)">Show&#160;the&#160;goal&#160;as&#160;it&#160;was&#160;one&#160;step&#160;earlier&#160;(←)</text><text class="terminal-644736484-r4" x="1464" y="532.4" textLength="12.2" clip-path="url(#terminal-644736484-line-21)">
</text><text class="terminal-644736484-r12" x="24.4" y="556.8" textLength="146.4" clip-path="url(#terminal-644736484-line-22)">Import&#160;trees</text><text class="terminal-644736484-r4" x="1464" y="556.8" textLength="12.2" clip-path="url(#terminal-644736484-line-22)">
</text><text class="terminal-644736484-r15" x="24.4" y="581.2" textLength="451.4" clip-path="url(#terminal-644736484-line-23)">Bring&#160;in&#160;trees&#160;from&#160;an&#160;.ltp.yaml&#160;file</text><text class="terminal-644736484-r4" x="1464" y="581.2" textLength="12.2" clip-path="url(#terminal-644736484-line-23)">
</text><text class="terminal-644736484-r12" x="24.4" y="605.6" textLength="134.2" clip-path="url(#terminal-644736484-line-24)">Other&#160;moves</text><text class="terminal-644736484-r4" x="1464" y="605.6" textLength="12.2" clip-path="url(#terminal-644736484-line-24)">
</text><text class="terminal-644736484-r15" x="24.4" y="630" textLength="622.2" clip-path="url(#terminal-644736484-line-25)">Advice,&#160;a&#160;different&#160;question,&#160;or&#160;local&#160;explanations</text><text class="terminal-644736484-r4" x="1464" y="630" textLength="12.2" clip-path="url(#terminal-644736484-line-25)">
</text><text class="terminal-644736484-r12" x="24.4" y="654.4" textLength="158.6" clip-path="url(#terminal-644736484-line-26)">Save&#160;and&#160;quit</text><text class="terminal-644736484-r4" x="1464" y="654.4" textLength="12.2" clip-path="url(#terminal-644736484-line-26)">
</text><text class="terminal-644736484-r15" x="24.4" y="678.8" textLength="414.8" clip-path="url(#terminal-644736484-line-27)">Keep&#160;your&#160;draft&#160;and&#160;close&#160;(Ctrl+Q)</text><text class="terminal-644736484-r4" x="1464" y="678.8" textLength="12.2" clip-path="url(#terminal-644736484-line-27)">
</text><text class="terminal-644736484-r12" x="24.4" y="703.2" textLength="134.2" clip-path="url(#terminal-644736484-line-28)">Send&#160;answer</text><text class="terminal-644736484-r4" x="1464" y="703.2" textLength="12.2" clip-path="url(#terminal-644736484-line-28)">
</text><text class="terminal-644736484-r15" x="24.4" y="727.6" textLength="524.6" clip-path="url(#terminal-644736484-line-29)">Send&#160;your&#160;answer&#160;to&#160;the&#160;consultant&#160;(Ctrl+S)</text><text class="terminal-644736484-r4" x="1464" y="727.6" textLength="12.2" clip-path="url(#terminal-644736484-line-29)">
</text><text class="terminal-644736484-r12" x="24.4" y="752" textLength="231.8" clip-path="url(#terminal-644736484-line-30)">Tree:&#160;All&#160;six&#160;trees</text><text class="terminal-644736484-r4" x="1464" y="752" textLength="12.2" clip-path="url(#terminal-644736484-line-30)">
</text><text class="terminal-644736484-r9" x="0" y="776.4" textLength="1464" clip-path="url(#terminal-644736484-line-31)">▁▁▁▁▁▁▁▁▁▁▁▁▁▁▁▁▁▁▁▁▁▁▁▁▁▁▁▁▁▁▁▁▁▁▁▁▁▁▁▁▁▁▁▁▁▁▁▁▁▁▁▁▁▁▁▁▁▁▁▁▁▁▁▁▁▁▁▁▁▁▁▁▁▁▁▁▁▁▁▁▁▁▁▁▁▁▁▁▁▁▁▁▁▁▁▁▁▁▁▁▁▁▁▁▁▁▁▁▁▁▁▁▁▁▁▁▁▁▁▁</text><text class="terminal-644736484-r4" x="1464" y="776.4" textLength="12.2" clip-path="url(#terminal-644736484-line-31)">
</text><text class="terminal-644736484-r16" x="0" y="800.8" textLength="12.2" clip-path="url(#terminal-644736484-line-32)">│</text><text class="terminal-644736484-r16" x="1451.8" y="800.8" textLength="12.2" clip-path="url(#terminal-644736484-line-32)">│</text><text class="terminal-644736484-r4" x="1464" y="800.8" textLength="12.2" clip-path="url(#terminal-644736484-line-32)">
</text><text class="terminal-644736484-r16" x="0" y="825.2" textLength="12.2" clip-path="url(#terminal-644736484-line-33)">│</text><text class="terminal-644736484-r17" x="36.6" y="825.2" textLength="73.2" clip-path="url(#terminal-644736484-line-33)">&#160;Send&#160;</text><text class="terminal-644736484-r3" x="134.2" y="825.2" textLength="170.8" clip-path="url(#terminal-644736484-line-33)">&#160;Explain&#160;this&#160;</text><text class="terminal-644736484-r3" x="317.2" y="825.2" textLength="158.6" clip-path="url(#terminal-644736484-line-33)">&#160;Other&#160;moves&#160;</text><text class="terminal-644736484-r3" x="488" y="825.2" textLength="109.8" clip-path="url(#terminal-644736484-line-33)">&#160;Actions&#160;</text><text class="terminal-644736484-r16" x="1451.8" y="825.2" textLength="12.2" clip-path="url(#terminal-644736484-line-33)">│</text><text class="terminal-644736484-r4" x="1464" y="825.2" textLength="12.2" clip-path="url(#terminal-644736484-line-33)">
</text><text class="terminal-644736484-r16" x="0" y="849.6" textLength="12.2" clip-path="url(#terminal-644736484-line-34)">╰</text><text class="terminal-644736484-r16" x="12.2" y="849.6" textLength="829.6" clip-path="url(#terminal-644736484-line-34)">────────────────────────────────────────────────────────────────────</text><text class="terminal-644736484-r3" x="841.8" y="849.6" textLength="597.8" clip-path="url(#terminal-644736484-line-34)">&#160;Enter&#160;adds&#160;a&#160;line&#160;·&#160;Send&#160;asks&#160;the&#160;offline&#160;guide&#160;</text><text class="terminal-644736484-r16" x="1439.6" y="849.6" textLength="12.2" clip-path="url(#terminal-644736484-line-34)">─</text><text class="terminal-644736484-r16" x="1451.8" y="849.6" textLength="12.2" clip-path="url(#terminal-644736484-line-34)">╯</text><text class="terminal-644736484-r4" x="1464" y="849.6" textLength="12.2" clip-path="url(#terminal-644736484-line-34)">
</text><text class="terminal-644736484-r18" x="0" y="874" textLength="48.8" clip-path="url(#terminal-644736484-line-35)">&#160;^q&#160;</text><text class="terminal-644736484-r6" x="48.8" y="874" textLength="146.4" clip-path="url(#terminal-644736484-line-35)">Save&#160;&amp;&#160;quit&#160;</text><text class="terminal-644736484-r18" x="195.2" y="874" textLength="48.8" clip-path="url(#terminal-644736484-line-35)">&#160;^s&#160;</text><text class="terminal-644736484-r6" x="244" y="874" textLength="61" clip-path="url(#terminal-644736484-line-35)">Send&#160;</text><text class="terminal-644736484-r18" x="305" y="874" textLength="48.8" clip-path="url(#terminal-644736484-line-35)">&#160;^t&#160;</text><text class="terminal-644736484-r6" x="353.8" y="874" textLength="73.2" clip-path="url(#terminal-644736484-line-35)">Trees&#160;</text><text class="terminal-644736484-r18" x="427" y="874" textLength="48.8" clip-path="url(#terminal-644736484-line-35)">&#160;f1&#160;</text><text class="terminal-644736484-r6" x="475.8" y="874" textLength="61" clip-path="url(#terminal-644736484-line-35)">Help&#160;</text><text class="terminal-644736484-r19" x="1256.6" y="874" textLength="12.2" clip-path="url(#terminal-644736484-line-35)">▏</text><text class="terminal-644736484-r18" x="1268.8" y="874" textLength="85.4" clip-path="url(#terminal-644736484-line-35)">Actions</text><text class="terminal-644736484-r6" x="1354.2" y="874" textLength="97.6" clip-path="url(#terminal-644736484-line-35)">&#160;palette</text>
    </g>
    </g>
</svg>
