<svg class="rich-terminal" viewBox="0 0 1238 586.8" xmlns="http://www.w3.org/2000/svg">
    <!-- Generated with Rich https://www.textualize.io -->
    <style>

    @font-face {
        font-family: "Fira Code";
        src: local("FiraCode-Regular"),
                url("https://cdnjs.cloudflare.com/ajax/libs/firacode/6.2.0/woff2/FiraCode-Regular.woff2") format("woff2"),
                url("https://cdnjs.cloudflare.com/ajax/libs/firacode/6.2.0/woff/FiraCode-Regular.woff") format("woff");
        font-style: normal;
        font-weight: 400;
    }
    @font-face {
        font-family: "Fira Code";
        src: local("FiraCode-Bold"),
                url("https://cdnjs.cloudflare.com/ajax/libs/firacode/6.2.0/woff2/FiraCode-Bold.woff2") format("woff2"),
                url("https://cdnjs.cloudflare.com/ajax/libs/firacode/6.2.0/woff/FiraCode-Bold.woff") format("woff");
        font-style: bold;
        font-weight: 700;
    }

    .terminal-2099071748-matrix {
        font-family: Fira Code, monospace;
        font-size: 20px;
        line-height: 24.4px;
        font-variant-east-asian: full-width;
    }

    .terminal-2099071748-title {
        font-size: 18px;
        font-weight: bold;
        font-family: arial;
    }

    .terminal-2099071748-r1 { fill: #8ec7a1 }
.terminal-2099071748-r2 { fill: #eae8e1 }
.terminal-2099071748-r3 { fill: #c5c8c6 }
.terminal-2099071748-r4 { fill: #eae8e1;font-weight: bold }
.terminal-2099071748-r5 { fill: #6c6a64 }
.terminal-2099071748-r6 { fill: #211f1b }
.terminal-2099071748-r7 { fill: #475c4a }
.terminal-2099071748-r8 { fill: #6c6a64;font-weight: bold }
.terminal-2099071748-r9 { fill: #b0aea8 }
.terminal-2099071748-r10 { fill: #54524d }
.terminal-2099071748-r11 { fill: #475c4a;font-weight: bold }
    </style>

    <defs>
    <clipPath id="terminal-2099071748-clip-terminal">
      <rect x="0" y="0" width="1219.0" height="535.8" />
    </clipPath>
    <clipPath id="terminal-2099071748-line-0">
    <rect x="0" y="1.5" width="1220" height="24.65"/>
            </clipPath>
<clipPath id="terminal-2099071748-line-1">
    <rect x="0" y="25.9" width="1220" height="24.65"/>
            </clipPath>
<clipPath id="terminal-2099071748-line-2">
    <rect x="0" y="50.3" width="1220" height="24.65"/>
            </clipPath>
<clipPath id="terminal-2099071748-line-3">
    <rect x="0" y="74.7" width="1220" height="24.65"/>
            </clipPath>
<clipPath id="terminal-2099071748-line-4">
    <rect x="0" y="99.1" width="1220" height="24.65"/>
            </clipPath>
<clipPath id="terminal-2099071748-line-5">
    <rect x="0" y="123.5" width="1220" height="24.65"/>
            </clipPath>
<clipPath id="terminal-2099071748-line-6">
    <rect x="0" y="147.9" width="1220" height="24.65"/>
            </clipPath>
<clipPath id="terminal-2099071748-line-7">
    <rect x="0" y="172.3" width="1220" height="24.65"/>
            </clipPath>
<clipPath id="terminal-2099071748-line-8">
    <rect x="0" y="196.7" width="1220" height="24.65"/>
            </clipPath>
<clipPath id="terminal-2099071748-line-9">
    <rect x="0" y="221.1" width="1220" height="24.65"/>
            </clipPath>
<clipPath id="terminal-2099071748-line-10">
    <rect x="0" y="245.5" width="1220" height="24.65"/>
            </clipPath>
<clipPath id="terminal-2099071748-line-11">
    <rect x="0" y="269.9" width="1220" height="24.65"/>
            </clipPath>
<clipPath id="terminal-2099071748-line-12">
    <rect x="0" y="294.3" width="1220" height="24.65"/>
            </clipPath>
<clipPath id="terminal-2099071748-line-13">
    <rect x="0" y="318.7" width="1220" height="24.65"/>
            </clipPath>
<clipPath id="terminal-2099071748-line-14">
    <rect x="0" y="343.1" width="1220" height="24.65"/>
            </clipPath>
<clipPath id="terminal-2099071748-line-15">
    <rect x="0" y="367.5" width="1220" height="24.65"/>
            </clipPath>
<clipPath id="terminal-2099071748-line-16">
    <rect x="0" y="391.9" width="1220" height="24.65"/>
            </clipPath>
<clipPath id="terminal-2099071748-line-17">
    <rect x="0" y="416.3" width="1220" height="24.65"/>
            </clipPath>
<clipPath id="terminal-2099071748-line-18">
    <rect x="0" y="440.7" width="1220" height="24.65"/>
            </clipPath>
<clipPath id="terminal-2099071748-line-19">
    <rect x="0" y="465.1" width="1220" height="24.65"/>
            </clipPath>
<clipPath id="terminal-2099071748-line-20">
    <rect x="0" y="489.5" width="1220" height="24.65"/>
            </clipPath>
    </defs>

    <rect fill="#292929" stroke="rgba(255,255,255,0.35)" stroke-width="1" x="1" y="1" width="1236" height="584.8" rx="8"/><text class="terminal-2099071748-title" fill="#c5c8c6" text-anchor="middle" x="618" y="27">Reason&#160;Commons</text>
            <g transform="translate(26,22)">
            <circle cx="0" cy="0" r="7" fill="#ff5f57"/>
            <circle cx="22" cy="0" r="7" fill="#febc2e"/>
            <circle cx="44" cy="0" r="7" fill="#28c840"/>
            </g>
        
    <g transform="translate(9, 41)" clip-path="url(#terminal-2099071748-clip-terminal)">
    <rect fill="#211f1b" x="0" y="1.5" width="12.2" height="24.65" shape-rendering="crispEdges"/><rect fill="#211f1b" x="12.2" y="1.5" width="951.6" height="24.65" shape-rendering="crispEdges"/><rect fill="#211f1b" x="963.8" y="1.5" width="12.2" height="24.65" shape-rendering="crispEdges"/><rect fill="#181611" x="976" y="1.5" width="244" height="24.65" shape-rendering="crispEdges"/><rect fill="#211f1b" x="0" y="25.9" width="12.2" height="24.65" shape-rendering="crispEdges"/><rect fill="#211f1b" x="12.2" y="25.9" width="951.6" height="24.65" shape-rendering="crispEdges"/><rect fill="#211f1b" x="963.8" y="25.9" width="12.2" height="24.65" shape-rendering="crispEdges"/><rect fill="#181611" x="976" y="25.9" width="219.6" height="24.65" shape-rendering="crispEdges"/><rect fill="#181611" x="1195.6" y="25.9" width="24.4" height="24.65" shape-rendering="crispEdges"/><rect fill="#211f1b" x="0" y="50.3" width="12.2" height="24.65" shape-rendering="crispEdges"/><rect fill="#211f1b" x="12.2" y="50.3" width="24.4" height="24.65" shape-rendering="crispEdges"/><rect fill="#211f1b" x="36.6" y="50.3" width="170.8" height="24.65" shape-rendering="crispEdges"/><rect fill="#211f1b" x="207.4" y="50.3" width="732" height="24.65" shape-rendering="crispEdges"/><rect fill="#211f1b" x="939.4" y="50.3" width="24.4" height="24.65" shape-rendering="crispEdges"/><rect fill="#211f1b" x="963.8" y="50.3" width="12.2" height="24.65" shape-rendering="crispEdges"/><rect fill="#181611" x="976" y="50.3" width="219.6" height="24.65" shape-rendering="crispEdges"/><rect fill="#181611" x="1195.6" y="50.3" width="24.4" height="24.65" shape-rendering="crispEdges"/><rect fill="#211f1b" x="0" y="74.7" width="12.2" height="24.65" shape-rendering="crispEdges"/><rect fill="#211f1b" x="12.2" y="74.7" width="24.4" height="24.65" shape-rendering="crispEdges"/><rect fill="#211f1b" x="36.6" y="74.7" width="902.8" height="24.65" shape-rendering="crispEdges"/><rect fill="#211f1b" x="939.4" y="74.7" width="24.4" height="24.65" shape-rendering="crispEdges"/><rect fill="#211f1b" x="963.8" y="74.7" width="12.2" height="24.65" shape-rendering="crispEdges"/><rect fill="#181611" x="976" y="74.7" width="183" height="24.65" shape-rendering="crispEdges"/><rect fill="#181611" x="1159" y="74.7" width="36.6" height="24.65" shape-rendering="crispEdges"/><rect fill="#181611" x="1195.6" y="74.7" width="24.4" height="24.65" shape-rendering="crispEdges"/><rect fill="#211f1b" x="0" y="99.1" width="12.2" height="24.65" shape-rendering="crispEdges"/><rect fill="#211f1b" x="12.2" y="99.1" width="24.4" height="24.65" shape-rendering="crispEdges"/><rect fill="#8ec7a1" x="36.6" y="99.1" width="12.2" height="24.65" shape-rendering="crispEdges"/><rect fill="#2b2924" x="48.8" y="99.1" width="878.4" height="24.65" shape-rendering="crispEdges"/><rect fill="#211f1b" x="927.2" y="99.1" width="12.2" height="24.65" shape-rendering="crispEdges"/><rect fill="#211f1b" x="939.4" y="99.1" width="24.4" height="24.65" shape-rendering="crispEdges"/><rect fill="#211f1b" x="963.8" y="99.1" width="12.2" height="24.65" shape-rendering="crispEdges"/><rect fill="#181611" x="976" y="99.1" width="219.6" height="24.65" shape-rendering="crispEdges"/><rect fill="#181611" x="1195.6" y="99.1" width="24.4" height="24.65" shape-rendering="crispEdges"/><rect fill="#211f1b" x="0" y="123.5" width="12.2" height="24.65" shape-rendering="crispEdges"/><rect fill="#211f1b" x="12.2" y="123.5" width="24.4" height="24.65" shape-rendering="crispEdges"/><rect fill="#8ec7a1" x="36.6" y="123.5" width="12.2" height="24.65" shape-rendering="crispEdges"/><rect fill="#2b2924" x="48.8" y="123.5" width="24.4" height="24.65" shape-rendering="crispEdges"/><rect fill="#2b2924" x="73.2" y="123.5" width="451.4" height="24.65" shape-rendering="crispEdges"/><rect fill="#2b2924" x="524.6" y="123.5" width="378.2" height="24.65" shape-rendering="crispEdges"/><rect fill="#2b2924" x="902.8" y="123.5" width="24.4" height="24.65" shape-rendering="crispEdges"/><rect fill="#211f1b" x="927.2" y="123.5" width="12.2" height="24.65" shape-rendering="crispEdges"/><rect fill="#211f1b" x="939.4" y="123.5" width="24.4" height="24.65" shape-rendering="crispEdges"/><rect fill="#211f1b" x="963.8" y="123.5" width="12.2" height="24.65" shape-rendering="crispEdges"/><rect fill="#181611" x="976" y="123.5" width="219.6" height="24.65" shape-rendering="crispEdges"/><rect fill="#181611" x="1195.6" y="123.5" width="24.4" height="24.65" shape-rendering="crispEdges"/><rect fill="#211f1b" x="0" y="147.9" width="12.2" height="24.65" shape-rendering="crispEdges"/><rect fill="#211f1b" x="12.2" y="147.9" width="24.4" height="24.65" shape-rendering="crispEdges"/><rect fill="#8ec7a1" x="36.6" y="147.9" width="12.2" height="24.65" shape-rendering="crispEdges"/><rect fill="#2b2924" x="48.8" y="147.9" width="878.4" height="24.65" shape-rendering="crispEdges"/><rect fill="#211f1b" x="927.2" y="147.9" width="12.2" height="24.65" shape-rendering="crispEdges"/><rect fill="#211f1b" x="939.4" y="147.9" width="24.4" height="24.65" shape-rendering="crispEdges"/><rect fill="#211f1b" x="963.8" y="147.9" width="12.2" height="24.65" shape-rendering="crispEdges"/><rect fill="#1f1d18" x="976" y="147.9" width="207.4" height="24.65" shape-rendering="crispEdges"/><rect fill="#1f1d18" x="1183.4" y="147.9" width="12.2" height="24.65" shape-rendering="crispEdges"/><rect fill="#181611" x="1195.6" y="147.9" width="24.4" height="24.65" shape-rendering="crispEdges"/><rect fill="#211f1b" x="0" y="172.3" width="12.2" height="24.65" shape-rendering="crispEdges"/><rect fill="#211f1b" x="12.2" y="172.3" width="24.4" height="24.65" shape-rendering="crispEdges"/><rect fill="#211f1b" x="36.6" y="172.3" width="902.8" height="24.65" shape-rendering="crispEdges"/><rect fill="#211f1b" x="939.4" y="172.3" width="24.4" height="24.65" shape-rendering="crispEdges"/><rect fill="#211f1b" x="963.8" y="172.3" width="12.2" height="24.65" shape-rendering="crispEdges"/><rect fill="#13281b" x="976" y="172.3" width="195.2" height="24.65" shape-rendering="crispEdges"/><rect fill="#1f1d18" x="1171.2" y="172.3" width="12.2" height="24.65" shape-rendering="crispEdges"/><rect fill="#1f1d18" x="1183.4" y="172.3" width="12.2" height="24.65" shape-rendering="crispEdges"/><rect fill="#181611" x="1195.6" y="172.3" width="24.4" height="24.65" shape-rendering="crispEdges"/><rect fill="#211f1b" x="0" y="196.7" width="12.2" height="24.65" shape-rendering="crispEdges"/><rect fill="#211f1b" x="12.2" y="196.7" width="24.4" height="24.65" shape-rendering="crispEdges"/><rect fill="#211f1b" x="36.6" y="196.7" width="902.8" height="24.65" shape-rendering="crispEdges"/><rect fill="#211f1b" x="939.4" y="196.7" width="24.4" height="24.65" shape-rendering="crispEdges"/><rect fill="#211f1b" x="963.8" y="196.7" width="12.2" height="24.65" shape-rendering="crispEdges"/><rect fill="#1f1d18" x="976" y="196.7" width="195.2" height="24.65" shape-rendering="crispEdges"/><rect fill="#1f1d18" x="1171.2" y="196.7" width="12.2" height="24.65" shape-rendering="crispEdges"/><rect fill="#1f1d18" x="1183.4" y="196.7" width="12.2" height="24.65" shape-rendering="crispEdges"/><rect fill="#181611" x="1195.6" y="196.7" width="24.4" height="24.65" shape-rendering="crispEdges"/><rect fill="#211f1b" x="0" y="221.1" width="12.2" height="24.65" shape-rendering="crispEdges"/><rect fill="#211f1b" x="12.2" y="221.1" width="951.6" height="24.65" shape-rendering="crispEdges"/><rect fill="#211f1b" x="963.8" y="221.1" width="12.2" height="24.65" shape-rendering="crispEdges"/><rect fill="#1f1d18" x="976" y="221.1" width="195.2" height="24.65" shape-rendering="crispEdges"/><rect fill="#1f1d18" x="1171.2" y="221.1" width="12.2" height="24.65" shape-rendering="crispEdges"/><rect fill="#1f1d18" x="1183.4" y="221.1" width="12.2" height="24.65" shape-rendering="crispEdges"/><rect fill="#181611" x="1195.6" y="221.1" width="24.4" height="24.65" shape-rendering="crispEdges"/><rect fill="#211f1b" x="0" y="245.5" width="12.2" height="24.65" shape-rendering="crispEdges"/><rect fill="#211f1b" x="12.2" y="245.5" width="951.6" height="24.65" shape-rendering="crispEdges"/><rect fill="#211f1b" x="963.8" y="245.5" width="12.2" height="24.65" shape-rendering="crispEdges"/><rect fill="#1f1d18" x="976" y="245.5" width="195.2" height="24.65" shape-rendering="crispEdges"/><rect fill="#1f1d18" x="1171.2" y="245.5" width="12.2" height="24.65" shape-rendering="crispEdges"/><rect fill="#1f1d18" x="1183.4" y="245.5" width="12.2" height="24.65" shape-rendering="crispEdges"/><rect fill="#181611" x="1195.6" y="245.5" width="24.4" height="24.65" shape-rendering="crispEdges"/><rect fill="#181611" x="0" y="269.9" width="24.4" height="24.65" shape-rendering="crispEdges"/><rect fill="#1f1d18" x="24.4" y="269.9" width="12.2" height="24.65" shape-rendering="crispEdges"/><rect fill="#1f1d18" x="36.6" y="269.9" width="12.2" height="24.65" shape-rendering="crispEdges"/><rect fill="#1f1d18" x="48.8" y="269.9" width="268.4" height="24.65" shape-rendering="crispEdges"/><rect fill="#1f1d18" x="317.2" y="269.9" width="854" height="24.65" shape-rendering="crispEdges"/><rect fill="#1f1d18" x="1171.2" y="269.9" width="12.2" height="24.65" shape-rendering="crispEdges"/><rect fill="#1f1d18" x="1183.4" y="269.9" width="12.2" height="24.65" shape-rendering="crispEdges"/><rect fill="#181611" x="1195.6" y="269.9" width="24.4" height="24.65" shape-rendering="crispEdges"/><rect fill="#181611" x="0" y="294.3" width="24.4" height="24.65" shape-rendering="crispEdges"/><rect fill="#1f1d18" x="24.4" y="294.3" width="12.2" height="24.65" shape-rendering="crispEdges"/><rect fill="#1f1d18" x="36.6" y="294.3" width="12.2" height="24.65" shape-rendering="crispEdges"/><rect fill="#1f1d18" x="48.8" y="294.3" width="939.4" height="24.65" shape-rendering="crispEdges"/><rect fill="#1f1d18" x="988.2" y="294.3" width="183" height="24.65" shape-rendering="crispEdges"/><rect fill="#1f1d18" x="1171.2" y="294.3" width="12.2" height="24.65" shape-rendering="crispEdges"/><rect fill="#1f1d18" x="1183.4" y="294.3" width="12.2" height="24.65" shape-rendering="crispEdges"/><rect fill="#181611" x="1195.6" y="294.3" width="24.4" height="24.65" shape-rendering="crispEdges"/><rect fill="#181611" x="0" y="318.7" width="24.4" height="24.65" shape-rendering="crispEdges"/><rect fill="#1f1d18" x="24.4" y="318.7" width="12.2" height="24.65" shape-rendering="crispEdges"/><rect fill="#1f1d18" x="36.6" y="318.7" width="12.2" height="24.65" shape-rendering="crispEdges"/><rect fill="#1f1d18" x="48.8" y="318.7" width="841.8" height="24.65" shape-rendering="crispEdges"/><rect fill="#1f1d18" x="890.6" y="318.7" width="280.6" height="24.65" shape-rendering="crispEdges"/><rect fill="#1f1d18" x="1171.2" y="318.7" width="12.2" height="24.65" shape-rendering="crispEdges"/><rect fill="#1f1d18" x="1183.4" y="318.7" width="12.2" height="24.65" shape-rendering="crispEdges"/><rect fill="#181611" x="1195.6" y="318.7" width="24.4" height="24.65" shape-rendering="crispEdges"/><rect fill="#181611" x="0" y="343.1" width="24.4" height="24.65" shape-rendering="crispEdges"/><rect fill="#1f1d18" x="24.4" y="343.1" width="12.2" height="24.65" shape-rendering="crispEdges"/><rect fill="#1f1d18" x="36.6" y="343.1" width="1146.8" height="24.65" shape-rendering="crispEdges"/><rect fill="#1f1d18" x="1183.4" y="343.1" width="12.2" height="24.65" shape-rendering="crispEdges"/><rect fill="#181611" x="1195.6" y="343.1" width="24.4" height="24.65" shape-rendering="crispEdges"/><rect fill="#181611" x="0" y="367.5" width="24.4" height="24.65" shape-rendering="crispEdges"/><rect fill="#181611" x="24.4" y="367.5" width="1171.2" height="24.65" shape-rendering="crispEdges"/><rect fill="#181611" x="1195.6" y="367.5" width="24.4" height="24.65" shape-rendering="crispEdges"/><rect fill="#181611" x="0" y="391.9" width="24.4" height="24.65" shape-rendering="crispEdges"/><rect fill="#181611" x="24.4" y="391.9" width="768.6" height="24.65" shape-rendering="crispEdges"/><rect fill="#181611" x="793" y="391.9" width="402.6" height="24.65" shape-rendering="crispEdges"/><rect fill="#181611" x="1195.6" y="391.9" width="24.4" height="24.65" shape-rendering="crispEdges"/><rect fill="#181611" x="0" y="416.3" width="24.4" height="24.65" shape-rendering="crispEdges"/><rect fill="#181611" x="24.4" y="416.3" width="1171.2" height="24.65" shape-rendering="crispEdges"/><rect fill="#181611" x="1195.6" y="416.3" width="24.4" height="24.65" shape-rendering="crispEdges"/><rect fill="#181611" x="0" y="440.7" width="24.4" height="24.65" shape-rendering="crispEdges"/><rect fill="#181611" x="24.4" y="440.7" width="1171.2" height="24.65" shape-rendering="crispEdges"/><rect fill="#181611" x="1195.6" y="440.7" width="24.4" height="24.65" shape-rendering="crispEdges"/><rect fill="#181611" x="0" y="465.1" width="24.4" height="24.65" shape-rendering="crispEdges"/><rect fill="#181611" x="24.4" y="465.1" width="1171.2" height="24.65" shape-rendering="crispEdges"/><rect fill="#181611" x="1195.6" y="465.1" width="24.4" height="24.65" shape-rendering="crispEdges"/><rect fill="#181611" x="0" y="489.5" width="1220" height="24.65" shape-rendering="crispEdges"/><rect fill="#15130e" x="0" y="513.9" width="48.8" height="24.65" shape-rendering="crispEdges"/><rect fill="#15130e" x="48.8" y="513.9" width="61" height="24.65" shape-rendering="crispEdges"/><rect fill="#15130e" x="109.8" y="513.9" width="48.8" height="24.65" shape-rendering="crispEdges"/><rect fill="#15130e" x="158.6" y="513.9" width="61" height="24.65" shape-rendering="crispEdges"/><rect fill="#15130e" x="219.6" y="513.9" width="1000.4" height="24.65" shape-rendering="crispEdges"/>
    <g class="terminal-2099071748-matrix">
    <text class="terminal-2099071748-r1" x="0" y="20" textLength="12.2" clip-path="url(#terminal-2099071748-line-0)">█</text><text class="terminal-2099071748-r1" x="12.2" y="20" textLength="951.6" clip-path="url(#terminal-2099071748-line-0)">▀▀▀▀▀▀▀▀▀▀▀▀▀▀▀▀▀▀▀▀▀▀▀▀▀▀▀▀▀▀▀▀▀▀▀▀▀▀▀▀▀▀▀▀▀▀▀▀▀▀▀▀▀▀▀▀▀▀▀▀▀▀▀▀▀▀▀▀▀▀▀▀▀▀▀▀▀▀</text><text class="terminal-2099071748-r1" x="963.8" y="20" textLength="12.2" clip-path="url(#terminal-2099071748-line-0)">█</text><text class="terminal-2099071748-r3" x="1220" y="20" textLength="12.2" clip-path="url(#terminal-2099071748-line-0)">
</text><text class="terminal-2099071748-r1" x="0" y="44.4" textLength="12.2" clip-path="url(#terminal-2099071748-line-1)">█</text><text class="terminal-2099071748-r1" x="963.8" y="44.4" textLength="12.2" clip-path="url(#terminal-2099071748-line-1)">█</text><text class="terminal-2099071748-r3" x="1220" y="44.4" textLength="12.2" clip-path="url(#terminal-2099071748-line-1)">
</text><text class="terminal-2099071748-r1" x="0" y="68.8" textLength="12.2" clip-path="url(#terminal-2099071748-line-2)">█</text><text class="terminal-2099071748-r4" x="36.6" y="68.8" textLength="170.8" clip-path="url(#terminal-2099071748-line-2)">Name&#160;this&#160;goal</text><text class="terminal-2099071748-r1" x="963.8" y="68.8" textLength="12.2" clip-path="url(#terminal-2099071748-line-2)">█</text><text class="terminal-2099071748-r3" x="1220" y="68.8" textLength="12.2" clip-path="url(#terminal-2099071748-line-2)">
</text><text class="terminal-2099071748-r1" x="0" y="93.2" textLength="12.2" clip-path="url(#terminal-2099071748-line-3)">█</text><text class="terminal-2099071748-r1" x="963.8" y="93.2" textLength="12.2" clip-path="url(#terminal-2099071748-line-3)">█</text><text class="terminal-2099071748-r5" x="976" y="93.2" textLength="183" clip-path="url(#terminal-2099071748-line-3)">th&#160;a&#160;forecast&#160;→</text><text class="terminal-2099071748-r3" x="1220" y="93.2" textLength="12.2" clip-path="url(#terminal-2099071748-line-3)">
</text><text class="terminal-2099071748-r1" x="0" y="117.6" textLength="12.2" clip-path="url(#terminal-2099071748-line-4)">█</text><text class="terminal-2099071748-r6" x="36.6" y="117.6" textLength="12.2" clip-path="url(#terminal-2099071748-line-4)">▊</text><text class="terminal-2099071748-r1" x="48.8" y="117.6" textLength="878.4" clip-path="url(#terminal-2099071748-line-4)">▔▔▔▔▔▔▔▔▔▔▔▔▔▔▔▔▔▔▔▔▔▔▔▔▔▔▔▔▔▔▔▔▔▔▔▔▔▔▔▔▔▔▔▔▔▔▔▔▔▔▔▔▔▔▔▔▔▔▔▔▔▔▔▔▔▔▔▔▔▔▔▔</text><text class="terminal-2099071748-r1" x="927.2" y="117.6" textLength="12.2" clip-path="url(#terminal-2099071748-line-4)">▎</text><text class="terminal-2099071748-r1" x="963.8" y="117.6" textLength="12.2" clip-path="url(#terminal-2099071748-line-4)">█</text><text class="terminal-2099071748-r3" x="1220" y="117.6" textLength="12.2" clip-path="url(#terminal-2099071748-line-4)">
</text><text class="terminal-2099071748-r1" x="0" y="142" textLength="12.2" clip-path="url(#terminal-2099071748-line-5)">█</text><text class="terminal-2099071748-r6" x="36.6" y="142" textLength="12.2" clip-path="url(#terminal-2099071748-line-5)">▊</text><text class="terminal-2099071748-r2" x="73.2" y="142" textLength="451.4" clip-path="url(#terminal-2099071748-line-5)">A&#160;clear&#160;next&#160;step&#160;after&#160;open&#160;evenings</text><text class="terminal-2099071748-r1" x="927.2" y="142" textLength="12.2" clip-path="url(#terminal-2099071748-line-5)">▎</text><text class="terminal-2099071748-r1" x="963.8" y="142" textLength="12.2" clip-path="url(#terminal-2099071748-line-5)">█</text><text class="terminal-2099071748-r3" x="1220" y="142" textLength="12.2" clip-path="url(#terminal-2099071748-line-5)">
</text><text class="terminal-2099071748-r1" x="0" y="166.4" textLength="12.2" clip-path="url(#terminal-2099071748-line-6)">█</text><text class="terminal-2099071748-r6" x="36.6" y="166.4" textLength="12.2" clip-path="url(#terminal-2099071748-line-6)">▊</text><text class="terminal-2099071748-r1" x="48.8" y="166.4" textLength="878.4" clip-path="url(#terminal-2099071748-line-6)">▁▁▁▁▁▁▁▁▁▁▁▁▁▁▁▁▁▁▁▁▁▁▁▁▁▁▁▁▁▁▁▁▁▁▁▁▁▁▁▁▁▁▁▁▁▁▁▁▁▁▁▁▁▁▁▁▁▁▁▁▁▁▁▁▁▁▁▁▁▁▁▁</text><text class="terminal-2099071748-r1" x="927.2" y="166.4" textLength="12.2" clip-path="url(#terminal-2099071748-line-6)">▎</text><text class="terminal-2099071748-r1" x="963.8" y="166.4" textLength="12.2" clip-path="url(#terminal-2099071748-line-6)">█</text><text class="terminal-2099071748-r7" x="976" y="166.4" textLength="207.4" clip-path="url(#terminal-2099071748-line-6)">─────────────────</text><text class="terminal-2099071748-r7" x="1183.4" y="166.4" textLength="12.2" clip-path="url(#terminal-2099071748-line-6)">╮</text><text class="terminal-2099071748-r3" x="1220" y="166.4" textLength="12.2" clip-path="url(#terminal-2099071748-line-6)">
</text><text class="terminal-2099071748-r1" x="0" y="190.8" textLength="12.2" clip-path="url(#terminal-2099071748-line-7)">█</text><text class="terminal-2099071748-r1" x="963.8" y="190.8" textLength="12.2" clip-path="url(#terminal-2099071748-line-7)">█</text><text class="terminal-2099071748-r7" x="1183.4" y="190.8" textLength="12.2" clip-path="url(#terminal-2099071748-line-7)">│</text><text class="terminal-2099071748-r3" x="1220" y="190.8" textLength="12.2" clip-path="url(#terminal-2099071748-line-7)">
</text><text class="terminal-2099071748-r1" x="0" y="215.2" textLength="12.2" clip-path="url(#terminal-2099071748-line-8)">█</text><text class="terminal-2099071748-r9" x="36.6" y="215.2" textLength="902.8" clip-path="url(#terminal-2099071748-line-8)">A&#160;few&#160;words&#160;is&#160;enough.&#160;Next&#160;you&#160;describe&#160;what&#160;would&#160;count&#160;as&#160;better.&#160;Enter</text><text class="terminal-2099071748-r1" x="963.8" y="215.2" textLength="12.2" clip-path="url(#terminal-2099071748-line-8)">█</text><text class="terminal-2099071748-r7" x="1183.4" y="215.2" textLength="12.2" clip-path="url(#terminal-2099071748-line-8)">│</text><text class="terminal-2099071748-r3" x="1220" y="215.2" textLength="12.2" clip-path="url(#terminal-2099071748-line-8)">
</text><text class="terminal-2099071748-r1" x="0" y="239.6" textLength="12.2" clip-path="url(#terminal-2099071748-line-9)">█</text><text class="terminal-2099071748-r1" x="963.8" y="239.6" textLength="12.2" clip-path="url(#terminal-2099071748-line-9)">█</text><text class="terminal-2099071748-r7" x="1183.4" y="239.6" textLength="12.2" clip-path="url(#terminal-2099071748-line-9)">│</text><text class="terminal-2099071748-r3" x="1220" y="239.6" textLength="12.2" clip-path="url(#terminal-2099071748-line-9)">
</text><text class="terminal-2099071748-r1" x="0" y="264" textLength="12.2" clip-path="url(#terminal-2099071748-line-10)">█</text><text class="terminal-2099071748-r1" x="12.2" y="264" textLength="951.6" clip-path="url(#terminal-2099071748-line-10)">▄▄▄▄▄▄▄▄▄▄▄▄▄▄▄▄▄▄▄▄▄▄▄▄▄▄▄▄▄▄▄▄▄▄▄▄▄▄▄▄▄▄▄▄▄▄▄▄▄▄▄▄▄▄▄▄▄▄▄▄▄▄▄▄▄▄▄▄▄▄▄▄▄▄▄▄▄▄</text><text class="terminal-2099071748-r1" x="963.8" y="264" textLength="12.2" clip-path="url(#terminal-2099071748-line-10)">█</text><text class="terminal-2099071748-r7" x="1183.4" y="264" textLength="12.2" clip-path="url(#terminal-2099071748-line-10)">│</text><text class="terminal-2099071748-r3" x="1220" y="264" textLength="12.2" clip-path="url(#terminal-2099071748-line-10)">
</text><text class="terminal-2099071748-r7" x="24.4" y="288.4" textLength="12.2" clip-path="url(#terminal-2099071748-line-11)">│</text><text class="terminal-2099071748-r5" x="48.8" y="288.4" textLength="268.4" clip-path="url(#terminal-2099071748-line-11)">&#160;&#160;Theme:&#160;Commons,&#160;dark</text><text class="terminal-2099071748-r7" x="1183.4" y="288.4" textLength="12.2" clip-path="url(#terminal-2099071748-line-11)">│</text><text class="terminal-2099071748-r3" x="1220" y="288.4" textLength="12.2" clip-path="url(#terminal-2099071748-line-11)">
</text><text class="terminal-2099071748-r7" x="24.4" y="312.8" textLength="12.2" clip-path="url(#terminal-2099071748-line-12)">│</text><text class="terminal-2099071748-r5" x="48.8" y="312.8" textLength="939.4" clip-path="url(#terminal-2099071748-line-12)">From&#160;open&#160;evening&#160;to&#160;first&#160;practice&#160;&#160;&#160;·&#160;&#160;&#160;Observe&#160;the&#160;result&#160;&#160;&#160;·&#160;&#160;&#160;2026-11-06</text><text class="terminal-2099071748-r7" x="1183.4" y="312.8" textLength="12.2" clip-path="url(#terminal-2099071748-line-12)">│</text><text class="terminal-2099071748-r3" x="1220" y="312.8" textLength="12.2" clip-path="url(#terminal-2099071748-line-12)">
</text><text class="terminal-2099071748-r7" x="24.4" y="337.2" textLength="12.2" clip-path="url(#terminal-2099071748-line-13)">│</text><text class="terminal-2099071748-r5" x="48.8" y="337.2" textLength="841.8" clip-path="url(#terminal-2099071748-line-13)">Agree&#160;how&#160;our&#160;strategy&#160;map&#160;gets&#160;reviewed&#160;&#160;&#160;·&#160;&#160;&#160;Start&#160;&#160;&#160;·&#160;&#160;&#160;2026-10-02</text><text class="terminal-2099071748-r7" x="1183.4" y="337.2" textLength="12.2" clip-path="url(#terminal-2099071748-line-13)">│</text><text class="terminal-2099071748-r3" x="1220" y="337.2" textLength="12.2" clip-path="url(#terminal-2099071748-line-13)">
</text><text class="terminal-2099071748-r7" x="24.4" y="361.6" textLength="12.2" clip-path="url(#terminal-2099071748-line-14)">╰</text><text class="terminal-2099071748-r7" x="36.6" y="361.6" textLength="1146.8" clip-path="url(#terminal-2099071748-line-14)">──────────────────────────────────────────────────────────────────────────────────────────────</text><text class="terminal-2099071748-r7" x="1183.4" y="361.6" textLength="12.2" clip-path="url(#terminal-2099071748-line-14)">╯</text><text class="terminal-2099071748-r3" x="1220" y="361.6" textLength="12.2" clip-path="url(#terminal-2099071748-line-14)">
</text><text class="terminal-2099071748-r3" x="1220" y="386" textLength="12.2" clip-path="url(#terminal-2099071748-line-15)">
</text><text class="terminal-2099071748-r10" x="24.4" y="410.4" textLength="768.6" clip-path="url(#terminal-2099071748-line-16)">Arrows&#160;choose,&#160;Enter&#160;opens.&#160;F1&#160;explains&#160;the&#160;loop.&#160;Ctrl+Q&#160;quits.</text><text class="terminal-2099071748-r3" x="1220" y="410.4" textLength="12.2" clip-path="url(#terminal-2099071748-line-16)">
</text><text class="terminal-2099071748-r3" x="1220" y="434.8" textLength="12.2" clip-path="url(#terminal-2099071748-line-17)">
</text><text class="terminal-2099071748-r3" x="1220" y="459.2" textLength="12.2" clip-path="url(#terminal-2099071748-line-18)">
</text><text class="terminal-2099071748-r3" x="1220" y="483.6" textLength="12.2" clip-path="url(#terminal-2099071748-line-19)">
</text><text class="terminal-2099071748-r3" x="1220" y="508" textLength="12.2" clip-path="url(#terminal-2099071748-line-20)">
</text><text class="terminal-2099071748-r11" x="0" y="532.4" textLength="48.8" clip-path="url(#terminal-2099071748-line-21)">&#160;^q&#160;</text><text class="terminal-2099071748-r5" x="48.8" y="532.4" textLength="61" clip-path="url(#terminal-2099071748-line-21)">Quit&#160;</text><text class="terminal-2099071748-r11" x="109.8" y="532.4" textLength="48.8" clip-path="url(#terminal-2099071748-line-21)">&#160;f1&#160;</text><text class="terminal-2099071748-r5" x="158.6" y="532.4" textLength="61" clip-path="url(#terminal-2099071748-line-21)">Help&#160;</text>
    </g>
    </g>
</svg>
