<svg class="rich-terminal" viewBox="0 0 994 782.0" xmlns="http://www.w3.org/2000/svg">
    <!-- Generated with Rich https://www.textualize.io -->
    <style>

    @font-face {
        font-family: "Fira Code";
        src: local("FiraCode-Regular"),
                url("https://cdnjs.cloudflare.com/ajax/libs/firacode/6.2.0/woff2/FiraCode-Regular.woff2") format("woff2"),
                url("https://cdnjs.cloudflare.com/ajax/libs/firacode/6.2.0/woff/FiraCode-Regular.woff") format("woff");
        font-style: normal;
        font-weight: 400;
    }
    @font-face {
        font-family: "Fira Code";
        src: local("FiraCode-Bold"),
                url("https://cdnjs.cloudflare.com/ajax/libs/firacode/6.2.0/woff2/FiraCode-Bold.woff2") format("woff2"),
                url("https://cdnjs.cloudflare.com/ajax/libs/firacode/6.2.0/woff/FiraCode-Bold.woff") format("woff");
        font-style: bold;
        font-weight: 700;
    }

    .terminal-3689947435-matrix {
        font-family: Fira Code, monospace;
        font-size: 20px;
        line-height: 24.4px;
        font-variant-east-asian: full-width;
    }

    .terminal-3689947435-title {
        font-size: 18px;
        font-weight: bold;
        font-family: arial;
    }

    .terminal-3689947435-r1 { fill: #c5c8c6 }
.terminal-3689947435-r2 { fill: #ddedf9;font-weight: bold }
.terminal-3689947435-r3 { fill: #ddedf9 }
.terminal-3689947435-r4 { fill: #e0e0e0;font-weight: bold }
.terminal-3689947435-r5 { fill: #e0e0e0 }
.terminal-3689947435-r6 { fill: #999999 }
.terminal-3689947435-r7 { fill: #121212;font-weight: bold }
.terminal-3689947435-r8 { fill: #242f38 }
.terminal-3689947435-r9 { fill: #0178d4;text-decoration: underline; }
.terminal-3689947435-r10 { fill: #121212 }
.terminal-3689947435-r11 { fill: #000000 }
.terminal-3689947435-r12 { fill: #004578 }
.terminal-3689947435-r13 { fill: #0178d4;font-weight: bold }
.terminal-3689947435-r14 { fill: #fea62b }
.terminal-3689947435-r15 { fill: #a0a0a0 }
.terminal-3689947435-r16 { fill: #ffa62b;font-weight: bold }
.terminal-3689947435-r17 { fill: #495259 }
    </style>

    <defs>
    <clipPath id="terminal-3689947435-clip-terminal">
      <rect x="0" y="0" width="975.0" height="731.0" />
    </clipPath>
    <clipPath id="terminal-3689947435-line-0">
    <rect x="0" y="1.5" width="976" height="24.65"/>
            </clipPath>
<clipPath id="terminal-3689947435-line-1">
    <rect x="0" y="25.9" width="976" height="24.65"/>
            </clipPath>
<clipPath id="terminal-3689947435-line-2">
    <rect x="0" y="50.3" width="976" height="24.65"/>
            </clipPath>
<clipPath id="terminal-3689947435-line-3">
    <rect x="0" y="74.7" width="976" height="24.65"/>
            </clipPath>
<clipPath id="terminal-3689947435-line-4">
    <rect x="0" y="99.1" width="976" height="24.65"/>
            </clipPath>
<clipPath id="terminal-3689947435-line-5">
    <rect x="0" y="123.5" width="976" height="24.65"/>
            </clipPath>
<clipPath id="terminal-3689947435-line-6">
    <rect x="0" y="147.9" width="976" height="24.65"/>
            </clipPath>
<clipPath id="terminal-3689947435-line-7">
    <rect x="0" y="172.3" width="976" height="24.65"/>
            </clipPath>
<clipPath id="terminal-3689947435-line-8">
    <rect x="0" y="196.7" width="976" height="24.65"/>
            </clipPath>
<clipPath id="terminal-3689947435-line-9">
    <rect x="0" y="221.1" width="976" height="24.65"/>
            </clipPath>
<clipPath id="terminal-3689947435-line-10">
    <rect x="0" y="245.5" width="976" height="24.65"/>
            </clipPath>
<clipPath id="terminal-3689947435-line-11">
    <rect x="0" y="269.9" width="976" height="24.65"/>
            </clipPath>
<clipPath id="terminal-3689947435-line-12">
    <rect x="0" y="294.3" width="976" height="24.65"/>
            </clipPath>
<clipPath id="terminal-3689947435-line-13">
    <rect x="0" y="318.7" width="976" height="24.65"/>
            </clipPath>
<clipPath id="terminal-3689947435-line-14">
    <rect x="0" y="343.1" width="976" height="24.65"/>
            </clipPath>
<clipPath id="terminal-3689947435-line-15">
    <rect x="0" y="367.5" width="976" height="24.65"/>
            </clipPath>
<clipPath id="terminal-3689947435-line-16">
    <rect x="0" y="391.9" width="976" height="24.65"/>
            </clipPath>
<clipPath id="terminal-3689947435-line-17">
    <rect x="0" y="416.3" width="976" height="24.65"/>
            </clipPath>
<clipPath id="terminal-3689947435-line-18">
    <rect x="0" y="440.7" width="976" height="24.65"/>
            </clipPath>
<clipPath id="terminal-3689947435-line-19">
    <rect x="0" y="465.1" width="976" height="24.65"/>
            </clipPath>
<clipPath id="terminal-3689947435-line-20">
    <rect x="0" y="489.5" width="976" height="24.65"/>
            </clipPath>
<clipPath id="terminal-3689947435-line-21">
    <rect x="0" y="513.9" width="976" height="24.65"/>
            </clipPath>
<clipPath id="terminal-3689947435-line-22">
    <rect x="0" y="538.3" width="976" height="24.65"/>
            </clipPath>
<clipPath id="terminal-3689947435-line-23">
    <rect x="0" y="562.7" width="976" height="24.65"/>
            </clipPath>
<clipPath id="terminal-3689947435-line-24">
    <rect x="0" y="587.1" width="976" height="24.65"/>
            </clipPath>
<clipPath id="terminal-3689947435-line-25">
    <rect x="0" y="611.5" width="976" height="24.65"/>
            </clipPath>
<clipPath id="terminal-3689947435-line-26">
    <rect x="0" y="635.9" width="976" height="24.65"/>
            </clipPath>
<clipPath id="terminal-3689947435-line-27">
    <rect x="0" y="660.3" width="976" height="24.65"/>
            </clipPath>
<clipPath id="terminal-3689947435-line-28">
    <rect x="0" y="684.7" width="976" height="24.65"/>
            </clipPath>
    </defs>

    <rect fill="#292929" stroke="rgba(255,255,255,0.35)" stroke-width="1" x="1" y="1" width="992" height="780" rx="8"/><text class="terminal-3689947435-title" fill="#c5c8c6" text-anchor="middle" x="496" y="27">Reason&#160;Commons</text>
            <g transform="translate(26,22)">
            <circle cx="0" cy="0" r="7" fill="#ff5f57"/>
            <circle cx="22" cy="0" r="7" fill="#febc2e"/>
            <circle cx="44" cy="0" r="7" fill="#28c840"/>
            </g>
        
    <g transform="translate(9, 41)" clip-path="url(#terminal-3689947435-clip-terminal)">
    <rect fill="#0178d4" x="0" y="1.5" width="12.2" height="24.65" shape-rendering="crispEdges"/><rect fill="#0178d4" x="12.2" y="1.5" width="427" height="24.65" shape-rendering="crispEdges"/><rect fill="#0178d4" x="439.2" y="1.5" width="512.4" height="24.65" shape-rendering="crispEdges"/><rect fill="#0178d4" x="951.6" y="1.5" width="12.2" height="24.65" shape-rendering="crispEdges"/><rect fill="#0178d4" x="963.8" y="1.5" width="12.2" height="24.65" shape-rendering="crispEdges"/><rect fill="#1b1b1b" x="0" y="25.9" width="12.2" height="24.65" shape-rendering="crispEdges"/><rect fill="#1b1b1b" x="12.2" y="25.9" width="48.8" height="24.65" shape-rendering="crispEdges"/><rect fill="#1b1b1b" x="61" y="25.9" width="902.8" height="24.65" shape-rendering="crispEdges"/><rect fill="#1b1b1b" x="963.8" y="25.9" width="12.2" height="24.65" shape-rendering="crispEdges"/><rect fill="#1b1b1b" x="0" y="50.3" width="12.2" height="24.65" shape-rendering="crispEdges"/><rect fill="#1b1b1b" x="12.2" y="50.3" width="866.2" height="24.65" shape-rendering="crispEdges"/><rect fill="#1b1b1b" x="878.4" y="50.3" width="85.4" height="24.65" shape-rendering="crispEdges"/><rect fill="#1b1b1b" x="963.8" y="50.3" width="12.2" height="24.65" shape-rendering="crispEdges"/><rect fill="#1b1b1b" x="0" y="74.7" width="12.2" height="24.65" shape-rendering="crispEdges"/><rect fill="#1b1b1b" x="12.2" y="74.7" width="902.8" height="24.65" shape-rendering="crispEdges"/><rect fill="#1b1b1b" x="915" y="74.7" width="48.8" height="24.65" shape-rendering="crispEdges"/><rect fill="#1b1b1b" x="963.8" y="74.7" width="12.2" height="24.65" shape-rendering="crispEdges"/><rect fill="#121212" x="0" y="99.1" width="12.2" height="24.65" shape-rendering="crispEdges"/><rect fill="#121212" x="12.2" y="99.1" width="73.2" height="24.65" shape-rendering="crispEdges"/><rect fill="#121212" x="85.4" y="99.1" width="36.6" height="24.65" shape-rendering="crispEdges"/><rect fill="#121212" x="122" y="99.1" width="207.4" height="24.65" shape-rendering="crispEdges"/><rect fill="#121212" x="329.4" y="99.1" width="36.6" height="24.65" shape-rendering="crispEdges"/><rect fill="#121212" x="366" y="99.1" width="97.6" height="24.65" shape-rendering="crispEdges"/><rect fill="#121212" x="463.6" y="99.1" width="36.6" height="24.65" shape-rendering="crispEdges"/><rect fill="#e0e0e0" x="500.2" y="99.1" width="134.2" height="24.65" shape-rendering="crispEdges"/><rect fill="#121212" x="634.4" y="99.1" width="109.8" height="24.65" shape-rendering="crispEdges"/><rect fill="#121212" x="744.2" y="99.1" width="219.6" height="24.65" shape-rendering="crispEdges"/><rect fill="#121212" x="963.8" y="99.1" width="12.2" height="24.65" shape-rendering="crispEdges"/><rect fill="#121212" x="0" y="123.5" width="12.2" height="24.65" shape-rendering="crispEdges"/><rect fill="#121212" x="12.2" y="123.5" width="951.6" height="24.65" shape-rendering="crispEdges"/><rect fill="#121212" x="963.8" y="123.5" width="12.2" height="24.65" shape-rendering="crispEdges"/><rect fill="#121212" x="0" y="147.9" width="12.2" height="24.65" shape-rendering="crispEdges"/><rect fill="#121212" x="12.2" y="147.9" width="12.2" height="24.65" shape-rendering="crispEdges"/><rect fill="#121212" x="24.4" y="147.9" width="24.4" height="24.65" shape-rendering="crispEdges"/><rect fill="#121212" x="48.8" y="147.9" width="219.6" height="24.65" shape-rendering="crispEdges"/><rect fill="#121212" x="268.4" y="147.9" width="634.4" height="24.65" shape-rendering="crispEdges"/><rect fill="#121212" x="902.8" y="147.9" width="24.4" height="24.65" shape-rendering="crispEdges"/><rect fill="#003054" x="927.2" y="147.9" width="24.4" height="24.65" shape-rendering="crispEdges"/><rect fill="#121212" x="951.6" y="147.9" width="12.2" height="24.65" shape-rendering="crispEdges"/><rect fill="#121212" x="963.8" y="147.9" width="12.2" height="24.65" shape-rendering="crispEdges"/><rect fill="#121212" x="0" y="172.3" width="12.2" height="24.65" shape-rendering="crispEdges"/><rect fill="#121212" x="12.2" y="172.3" width="12.2" height="24.65" shape-rendering="crispEdges"/><rect fill="#121212" x="24.4" y="172.3" width="24.4" height="24.65" shape-rendering="crispEdges"/><rect fill="#121212" x="48.8" y="172.3" width="854" height="24.65" shape-rendering="crispEdges"/><rect fill="#121212" x="902.8" y="172.3" width="24.4" height="24.65" shape-rendering="crispEdges"/><rect fill="#003054" x="927.2" y="172.3" width="24.4" height="24.65" shape-rendering="crispEdges"/><rect fill="#121212" x="951.6" y="172.3" width="12.2" height="24.65" shape-rendering="crispEdges"/><rect fill="#121212" x="963.8" y="172.3" width="12.2" height="24.65" shape-rendering="crispEdges"/><rect fill="#121212" x="0" y="196.7" width="12.2" height="24.65" shape-rendering="crispEdges"/><rect fill="#121212" x="12.2" y="196.7" width="12.2" height="24.65" shape-rendering="crispEdges"/><rect fill="#121212" x="24.4" y="196.7" width="24.4" height="24.65" shape-rendering="crispEdges"/><rect fill="#121212" x="48.8" y="196.7" width="805.2" height="24.65" shape-rendering="crispEdges"/><rect fill="#121212" x="854" y="196.7" width="48.8" height="24.65" shape-rendering="crispEdges"/><rect fill="#121212" x="902.8" y="196.7" width="24.4" height="24.65" shape-rendering="crispEdges"/><rect fill="#003054" x="927.2" y="196.7" width="24.4" height="24.65" shape-rendering="crispEdges"/><rect fill="#121212" x="951.6" y="196.7" width="12.2" height="24.65" shape-rendering="crispEdges"/><rect fill="#121212" x="963.8" y="196.7" width="12.2" height="24.65" shape-rendering="crispEdges"/><rect fill="#121212" x="0" y="221.1" width="12.2" height="24.65" shape-rendering="crispEdges"/><rect fill="#121212" x="12.2" y="221.1" width="12.2" height="24.65" shape-rendering="crispEdges"/><rect fill="#121212" x="24.4" y="221.1" width="24.4" height="24.65" shape-rendering="crispEdges"/><rect fill="#121212" x="48.8" y="221.1" width="549" height="24.65" shape-rendering="crispEdges"/><rect fill="#121212" x="597.8" y="221.1" width="305" height="24.65" shape-rendering="crispEdges"/><rect fill="#121212" x="902.8" y="221.1" width="24.4" height="24.65" shape-rendering="crispEdges"/><rect fill="#003054" x="927.2" y="221.1" width="24.4" height="24.65" shape-rendering="crispEdges"/><rect fill="#121212" x="951.6" y="221.1" width="12.2" height="24.65" shape-rendering="crispEdges"/><rect fill="#121212" x="963.8" y="221.1" width="12.2" height="24.65" shape-rendering="crispEdges"/><rect fill="#121212" x="0" y="245.5" width="12.2" height="24.65" shape-rendering="crispEdges"/><rect fill="#121212" x="12.2" y="245.5" width="12.2" height="24.65" shape-rendering="crispEdges"/><rect fill="#121212" x="24.4" y="245.5" width="24.4" height="24.65" shape-rendering="crispEdges"/><rect fill="#121212" x="48.8" y="245.5" width="854" height="24.65" shape-rendering="crispEdges"/><rect fill="#121212" x="902.8" y="245.5" width="24.4" height="24.65" shape-rendering="crispEdges"/><rect fill="#003054" x="927.2" y="245.5" width="24.4" height="24.65" shape-rendering="crispEdges"/><rect fill="#121212" x="951.6" y="245.5" width="12.2" height="24.65" shape-rendering="crispEdges"/><rect fill="#121212" x="963.8" y="245.5" width="12.2" height="24.65" shape-rendering="crispEdges"/><rect fill="#121212" x="0" y="269.9" width="12.2" height="24.65" shape-rendering="crispEdges"/><rect fill="#121212" x="12.2" y="269.9" width="12.2" height="24.65" shape-rendering="crispEdges"/><rect fill="#121212" x="24.4" y="269.9" width="24.4" height="24.65" shape-rendering="crispEdges"/><rect fill="#121212" x="48.8" y="269.9" width="854" height="24.65" shape-rendering="crispEdges"/><rect fill="#121212" x="902.8" y="269.9" width="24.4" height="24.65" shape-rendering="crispEdges"/><rect fill="#000000" x="927.2" y="269.9" width="24.4" height="24.65" shape-rendering="crispEdges"/><rect fill="#121212" x="951.6" y="269.9" width="12.2" height="24.65" shape-rendering="crispEdges"/><rect fill="#121212" x="963.8" y="269.9" width="12.2" height="24.65" shape-rendering="crispEdges"/><rect fill="#121212" x="0" y="294.3" width="12.2" height="24.65" shape-rendering="crispEdges"/><rect fill="#121212" x="12.2" y="294.3" width="12.2" height="24.65" shape-rendering="crispEdges"/><rect fill="#121212" x="24.4" y="294.3" width="24.4" height="24.65" shape-rendering="crispEdges"/><rect fill="#121212" x="48.8" y="294.3" width="854" height="24.65" shape-rendering="crispEdges"/><rect fill="#121212" x="902.8" y="294.3" width="24.4" height="24.65" shape-rendering="crispEdges"/><rect fill="#000000" x="927.2" y="294.3" width="24.4" height="24.65" shape-rendering="crispEdges"/><rect fill="#121212" x="951.6" y="294.3" width="12.2" height="24.65" shape-rendering="crispEdges"/><rect fill="#121212" x="963.8" y="294.3" width="12.2" height="24.65" shape-rendering="crispEdges"/><rect fill="#121212" x="0" y="318.7" width="12.2" height="24.65" shape-rendering="crispEdges"/><rect fill="#121212" x="12.2" y="318.7" width="12.2" height="24.65" shape-rendering="crispEdges"/><rect fill="#121212" x="24.4" y="318.7" width="24.4" height="24.65" shape-rendering="crispEdges"/><rect fill="#121212" x="48.8" y="318.7" width="854" height="24.65" shape-rendering="crispEdges"/><rect fill="#121212" x="902.8" y="318.7" width="24.4" height="24.65" shape-rendering="crispEdges"/><rect fill="#000000" x="927.2" y="318.7" width="24.4" height="24.65" shape-rendering="crispEdges"/><rect fill="#121212" x="951.6" y="318.7" width="12.2" height="24.65" shape-rendering="crispEdges"/><rect fill="#121212" x="963.8" y="318.7" width="12.2" height="24.65" shape-rendering="crispEdges"/><rect fill="#121212" x="0" y="343.1" width="12.2" height="24.65" shape-rendering="crispEdges"/><rect fill="#121212" x="12.2" y="343.1" width="12.2" height="24.65" shape-rendering="crispEdges"/><rect fill="#121212" x="24.4" y="343.1" width="24.4" height="24.65" shape-rendering="crispEdges"/><rect fill="#121212" x="48.8" y="343.1" width="292.8" height="24.65" shape-rendering="crispEdges"/><rect fill="#121212" x="341.6" y="343.1" width="561.2" height="24.65" shape-rendering="crispEdges"/><rect fill="#121212" x="902.8" y="343.1" width="24.4" height="24.65" shape-rendering="crispEdges"/><rect fill="#000000" x="927.2" y="343.1" width="24.4" height="24.65" shape-rendering="crispEdges"/><rect fill="#121212" x="951.6" y="343.1" width="12.2" height="24.65" shape-rendering="crispEdges"/><rect fill="#121212" x="963.8" y="343.1" width="12.2" height="24.65" shape-rendering="crispEdges"/><rect fill="#121212" x="0" y="367.5" width="12.2" height="24.65" shape-rendering="crispEdges"/><rect fill="#121212" x="12.2" y="367.5" width="12.2" height="24.65" shape-rendering="crispEdges"/><rect fill="#121212" x="24.4" y="367.5" width="24.4" height="24.65" shape-rendering="crispEdges"/><rect fill="#121212" x="48.8" y="367.5" width="854" height="24.65" shape-rendering="crispEdges"/><rect fill="#121212" x="902.8" y="367.5" width="24.4" height="24.65" shape-rendering="crispEdges"/><rect fill="#000000" x="927.2" y="367.5" width="24.4" height="24.65" shape-rendering="crispEdges"/><rect fill="#121212" x="951.6" y="367.5" width="12.2" height="24.65" shape-rendering="crispEdges"/><rect fill="#121212" x="963.8" y="367.5" width="12.2" height="24.65" shape-rendering="crispEdges"/><rect fill="#121212" x="0" y="391.9" width="12.2" height="24.65" shape-rendering="crispEdges"/><rect fill="#121212" x="12.2" y="391.9" width="12.2" height="24.65" shape-rendering="crispEdges"/><rect fill="#121212" x="24.4" y="391.9" width="24.4" height="24.65" shape-rendering="crispEdges"/><rect fill="#121212" x="48.8" y="391.9" width="61" height="24.65" shape-rendering="crispEdges"/><rect fill="#121212" x="109.8" y="391.9" width="756.4" height="24.65" shape-rendering="crispEdges"/><rect fill="#121212" x="866.2" y="391.9" width="36.6" height="24.65" shape-rendering="crispEdges"/><rect fill="#121212" x="902.8" y="391.9" width="24.4" height="24.65" shape-rendering="crispEdges"/><rect fill="#000000" x="927.2" y="391.9" width="24.4" height="24.65" shape-rendering="crispEdges"/><rect fill="#121212" x="951.6" y="391.9" width="12.2" height="24.65" shape-rendering="crispEdges"/><rect fill="#121212" x="963.8" y="391.9" width="12.2" height="24.65" shape-rendering="crispEdges"/><rect fill="#121212" x="0" y="416.3" width="12.2" height="24.65" shape-rendering="crispEdges"/><rect fill="#121212" x="12.2" y="416.3" width="951.6" height="24.65" shape-rendering="crispEdges"/><rect fill="#121212" x="963.8" y="416.3" width="12.2" height="24.65" shape-rendering="crispEdges"/><rect fill="#121212" x="0" y="440.7" width="12.2" height="24.65" shape-rendering="crispEdges"/><rect fill="#121212" x="12.2" y="440.7" width="951.6" height="24.65" shape-rendering="crispEdges"/><rect fill="#121212" x="963.8" y="440.7" width="12.2" height="24.65" shape-rendering="crispEdges"/><rect fill="#121212" x="0" y="465.1" width="12.2" height="24.65" shape-rendering="crispEdges"/><rect fill="#121212" x="12.2" y="465.1" width="12.2" height="24.65" shape-rendering="crispEdges"/><rect fill="#121212" x="24.4" y="465.1" width="878.4" height="24.65" shape-rendering="crispEdges"/><rect fill="#121212" x="902.8" y="465.1" width="48.8" height="24.65" shape-rendering="crispEdges"/><rect fill="#121212" x="951.6" y="465.1" width="12.2" height="24.65" shape-rendering="crispEdges"/><rect fill="#121212" x="963.8" y="465.1" width="12.2" height="24.65" shape-rendering="crispEdges"/><rect fill="#121212" x="0" y="489.5" width="12.2" height="24.65" shape-rendering="crispEdges"/><rect fill="#121212" x="12.2" y="489.5" width="12.2" height="24.65" shape-rendering="crispEdges"/><rect fill="#1e1e1e" x="24.4" y="489.5" width="12.2" height="24.65" shape-rendering="crispEdges"/><rect fill="#e0e0e0" x="36.6" y="489.5" width="12.2" height="24.65" shape-rendering="crispEdges"/><rect fill="#262626" x="48.8" y="489.5" width="890.6" height="24.65" shape-rendering="crispEdges"/><rect fill="#1e1e1e" x="939.4" y="489.5" width="12.2" height="24.65" shape-rendering="crispEdges"/><rect fill="#121212" x="951.6" y="489.5" width="12.2" height="24.65" shape-rendering="crispEdges"/><rect fill="#121212" x="963.8" y="489.5" width="12.2" height="24.65" shape-rendering="crispEdges"/><rect fill="#121212" x="0" y="513.9" width="12.2" height="24.65" shape-rendering="crispEdges"/><rect fill="#121212" x="12.2" y="513.9" width="12.2" height="24.65" shape-rendering="crispEdges"/><rect fill="#1e1e1e" x="24.4" y="513.9" width="12.2" height="24.65" shape-rendering="crispEdges"/><rect fill="#1e1e1e" x="36.6" y="513.9" width="902.8" height="24.65" shape-rendering="crispEdges"/><rect fill="#1e1e1e" x="939.4" y="513.9" width="12.2" height="24.65" shape-rendering="crispEdges"/><rect fill="#121212" x="951.6" y="513.9" width="12.2" height="24.65" shape-rendering="crispEdges"/><rect fill="#121212" x="963.8" y="513.9" width="12.2" height="24.65" shape-rendering="crispEdges"/><rect fill="#121212" x="0" y="538.3" width="12.2" height="24.65" shape-rendering="crispEdges"/><rect fill="#121212" x="12.2" y="538.3" width="12.2" height="24.65" shape-rendering="crispEdges"/><rect fill="#1e1e1e" x="24.4" y="538.3" width="12.2" height="24.65" shape-rendering="crispEdges"/><rect fill="#1e1e1e" x="36.6" y="538.3" width="902.8" height="24.65" shape-rendering="crispEdges"/><rect fill="#1e1e1e" x="939.4" y="538.3" width="12.2" height="24.65" shape-rendering="crispEdges"/><rect fill="#121212" x="951.6" y="538.3" width="12.2" height="24.65" shape-rendering="crispEdges"/><rect fill="#121212" x="963.8" y="538.3" width="12.2" height="24.65" shape-rendering="crispEdges"/><rect fill="#121212" x="0" y="562.7" width="12.2" height="24.65" shape-rendering="crispEdges"/><rect fill="#121212" x="12.2" y="562.7" width="12.2" height="24.65" shape-rendering="crispEdges"/><rect fill="#1e1e1e" x="24.4" y="562.7" width="12.2" height="24.65" shape-rendering="crispEdges"/><rect fill="#1e1e1e" x="36.6" y="562.7" width="902.8" height="24.65" shape-rendering="crispEdges"/><rect fill="#1e1e1e" x="939.4" y="562.7" width="12.2" height="24.65" shape-rendering="crispEdges"/><rect fill="#121212" x="951.6" y="562.7" width="12.2" height="24.65" shape-rendering="crispEdges"/><rect fill="#121212" x="963.8" y="562.7" width="12.2" height="24.65" shape-rendering="crispEdges"/><rect fill="#121212" x="0" y="587.1" width="12.2" height="24.65" shape-rendering="crispEdges"/><rect fill="#121212" x="12.2" y="587.1" width="12.2" height="24.65" shape-rendering="crispEdges"/><rect fill="#1e1e1e" x="24.4" y="587.1" width="12.2" height="24.65" shape-rendering="crispEdges"/><rect fill="#1e1e1e" x="36.6" y="587.1" width="902.8" height="24.65" shape-rendering="crispEdges"/><rect fill="#1e1e1e" x="939.4" y="587.1" width="12.2" height="24.65" shape-rendering="crispEdges"/><rect fill="#121212" x="951.6" y="587.1" width="12.2" height="24.65" shape-rendering="crispEdges"/><rect fill="#121212" x="963.8" y="587.1" width="12.2" height="24.65" shape-rendering="crispEdges"/><rect fill="#121212" x="0" y="611.5" width="12.2" height="24.65" shape-rendering="crispEdges"/><rect fill="#121212" x="12.2" y="611.5" width="12.2" height="24.65" shape-rendering="crispEdges"/><rect fill="#1e1e1e" x="24.4" y="611.5" width="12.2" height="24.65" shape-rendering="crispEdges"/><rect fill="#1e1e1e" x="36.6" y="611.5" width="902.8" height="24.65" shape-rendering="crispEdges"/><rect fill="#1e1e1e" x="939.4" y="611.5" width="12.2" height="24.65" shape-rendering="crispEdges"/><rect fill="#121212" x="951.6" y="611.5" width="12.2" height="24.65" shape-rendering="crispEdges"/><rect fill="#121212" x="963.8" y="611.5" width="12.2" height="24.65" shape-rendering="crispEdges"/><rect fill="#121212" x="0" y="635.9" width="12.2" height="24.65" shape-rendering="crispEdges"/><rect fill="#121212" x="12.2" y="635.9" width="12.2" height="24.65" shape-rendering="crispEdges"/><rect fill="#121212" x="24.4" y="635.9" width="927.2" height="24.65" shape-rendering="crispEdges"/><rect fill="#121212" x="951.6" y="635.9" width="12.2" height="24.65" shape-rendering="crispEdges"/><rect fill="#121212" x="963.8" y="635.9" width="12.2" height="24.65" shape-rendering="crispEdges"/><rect fill="#121212" x="0" y="660.3" width="12.2" height="24.65" shape-rendering="crispEdges"/><rect fill="#121212" x="12.2" y="660.3" width="12.2" height="24.65" shape-rendering="crispEdges"/><rect fill="#0178d4" x="24.4" y="660.3" width="12.2" height="24.65" shape-rendering="crispEdges"/><rect fill="#0178d4" x="36.6" y="660.3" width="73.2" height="24.65" shape-rendering="crispEdges"/><rect fill="#0178d4" x="109.8" y="660.3" width="12.2" height="24.65" shape-rendering="crispEdges"/><rect fill="#121212" x="122" y="660.3" width="12.2" height="24.65" shape-rendering="crispEdges"/><rect fill="#1e1e1e" x="134.2" y="660.3" width="170.8" height="24.65" shape-rendering="crispEdges"/><rect fill="#121212" x="305" y="660.3" width="12.2" height="24.65" shape-rendering="crispEdges"/><rect fill="#1e1e1e" x="317.2" y="660.3" width="158.6" height="24.65" shape-rendering="crispEdges"/><rect fill="#121212" x="475.8" y="660.3" width="12.2" height="24.65" shape-rendering="crispEdges"/><rect fill="#1e1e1e" x="488" y="660.3" width="85.4" height="24.65" shape-rendering="crispEdges"/><rect fill="#1e1e1e" x="573.4" y="660.3" width="12.2" height="24.65" shape-rendering="crispEdges"/><rect fill="#121212" x="585.6" y="660.3" width="12.2" height="24.65" shape-rendering="crispEdges"/><rect fill="#1e1e1e" x="597.8" y="660.3" width="109.8" height="24.65" shape-rendering="crispEdges"/><rect fill="#121212" x="707.6" y="660.3" width="244" height="24.65" shape-rendering="crispEdges"/><rect fill="#121212" x="951.6" y="660.3" width="12.2" height="24.65" shape-rendering="crispEdges"/><rect fill="#121212" x="963.8" y="660.3" width="12.2" height="24.65" shape-rendering="crispEdges"/><rect fill="#121212" x="0" y="684.7" width="12.2" height="24.65" shape-rendering="crispEdges"/><rect fill="#121212" x="12.2" y="684.7" width="951.6" height="24.65" shape-rendering="crispEdges"/><rect fill="#121212" x="963.8" y="684.7" width="12.2" height="24.65" shape-rendering="crispEdges"/><rect fill="#242f38" x="0" y="709.1" width="48.8" height="24.65" shape-rendering="crispEdges"/><rect fill="#242f38" x="48.8" y="709.1" width="146.4" height="24.65" shape-rendering="crispEdges"/><rect fill="#242f38" x="195.2" y="709.1" width="48.8" height="24.65" shape-rendering="crispEdges"/><rect fill="#242f38" x="244" y="709.1" width="61" height="24.65" shape-rendering="crispEdges"/><rect fill="#242f38" x="305" y="709.1" width="48.8" height="24.65" shape-rendering="crispEdges"/><rect fill="#242f38" x="353.8" y="709.1" width="73.2" height="24.65" shape-rendering="crispEdges"/><rect fill="#242f38" x="427" y="709.1" width="48.8" height="24.65" shape-rendering="crispEdges"/><rect fill="#242f38" x="475.8" y="709.1" width="122" height="24.65" shape-rendering="crispEdges"/><rect fill="#242f38" x="597.8" y="709.1" width="48.8" height="24.65" shape-rendering="crispEdges"/><rect fill="#242f38" x="646.6" y="709.1" width="61" height="24.65" shape-rendering="crispEdges"/><rect fill="#242f38" x="707.6" y="709.1" width="61" height="24.65" shape-rendering="crispEdges"/><rect fill="#242f38" x="768.6" y="709.1" width="12.2" height="24.65" shape-rendering="crispEdges"/><rect fill="#242f38" x="780.8" y="709.1" width="85.4" height="24.65" shape-rendering="crispEdges"/><rect fill="#242f38" x="866.2" y="709.1" width="97.6" height="24.65" shape-rendering="crispEdges"/><rect fill="#242f38" x="963.8" y="709.1" width="12.2" height="24.65" shape-rendering="crispEdges"/>
    <g class="terminal-3689947435-matrix">
    <text class="terminal-3689947435-r2" x="12.2" y="20" textLength="427" clip-path="url(#terminal-3689947435-line-0)">From&#160;open&#160;evening&#160;to&#160;first&#160;practice</text><text class="terminal-3689947435-r3" x="439.2" y="20" textLength="512.4" clip-path="url(#terminal-3689947435-line-0)">&#160;&#160;|&#160;&#160;Mira&#160;&#160;|&#160;&#160;Saved&#160;&#160;|&#160;&#160;Observe&#160;the&#160;result</text><text class="terminal-3689947435-r1" x="976" y="20" textLength="12.2" clip-path="url(#terminal-3689947435-line-0)">
</text><text class="terminal-3689947435-r4" x="12.2" y="44.4" textLength="48.8" clip-path="url(#terminal-3689947435-line-1)">Goal</text><text class="terminal-3689947435-r5" x="61" y="44.4" textLength="902.8" clip-path="url(#terminal-3689947435-line-1)">&#160;Newcomers&#160;at&#160;our&#160;open&#160;evenings&#160;find&#160;a&#160;clear,&#160;no-pressure&#160;next&#160;step&#160;into&#160;a</text><text class="terminal-3689947435-r1" x="976" y="44.4" textLength="12.2" clip-path="url(#terminal-3689947435-line-1)">
</text><text class="terminal-3689947435-r5" x="12.2" y="68.8" textLength="866.2" clip-path="url(#terminal-3689947435-line-2)">first&#160;practice&#160;session,&#160;so&#160;interest&#160;turns&#160;into&#160;sustained&#160;practice.&#160;&#160;|&#160;&#160;</text><text class="terminal-3689947435-r4" x="878.4" y="68.8" textLength="85.4" clip-path="url(#terminal-3689947435-line-2)">Protect</text><text class="terminal-3689947435-r1" x="976" y="68.8" textLength="12.2" clip-path="url(#terminal-3689947435-line-2)">
</text><text class="terminal-3689947435-r5" x="12.2" y="93.2" textLength="902.8" clip-path="url(#terminal-3689947435-line-3)">Nobody&#160;feels&#160;recruited&#160;or&#160;pressured;&#160;Organisers&#x27;&#160;hours&#160;stay&#160;as&#160;they&#160;are&#160;&#160;|</text><text class="terminal-3689947435-r1" x="976" y="93.2" textLength="12.2" clip-path="url(#terminal-3689947435-line-3)">
</text><text class="terminal-3689947435-r6" x="12.2" y="117.6" textLength="73.2" clip-path="url(#terminal-3689947435-line-4)">✓&#160;Goal</text><text class="terminal-3689947435-r5" x="85.4" y="117.6" textLength="36.6" clip-path="url(#terminal-3689947435-line-4)">&#160;→&#160;</text><text class="terminal-3689947435-r6" x="122" y="117.6" textLength="207.4" clip-path="url(#terminal-3689947435-line-4)">✓&#160;Test&#160;+&#160;forecast</text><text class="terminal-3689947435-r5" x="329.4" y="117.6" textLength="36.6" clip-path="url(#terminal-3689947435-line-4)">&#160;→&#160;</text><text class="terminal-3689947435-r6" x="366" y="117.6" textLength="97.6" clip-path="url(#terminal-3689947435-line-4)">✓&#160;Action</text><text class="terminal-3689947435-r5" x="463.6" y="117.6" textLength="36.6" clip-path="url(#terminal-3689947435-line-4)">&#160;→&#160;</text><text class="terminal-3689947435-r7" x="500.2" y="117.6" textLength="134.2" clip-path="url(#terminal-3689947435-line-4)">&#160;&gt;&#160;Observe&#160;</text><text class="terminal-3689947435-r5" x="634.4" y="117.6" textLength="109.8" clip-path="url(#terminal-3689947435-line-4)">&#160;→&#160;Review</text><text class="terminal-3689947435-r1" x="976" y="117.6" textLength="12.2" clip-path="url(#terminal-3689947435-line-4)">
</text><text class="terminal-3689947435-r8" x="0" y="142" textLength="12.2" clip-path="url(#terminal-3689947435-line-5)">╭</text><text class="terminal-3689947435-r8" x="12.2" y="142" textLength="951.6" clip-path="url(#terminal-3689947435-line-5)">──────────────────────────────────────────────────────────────────────────────</text><text class="terminal-3689947435-r8" x="963.8" y="142" textLength="12.2" clip-path="url(#terminal-3689947435-line-5)">╮</text><text class="terminal-3689947435-r1" x="976" y="142" textLength="12.2" clip-path="url(#terminal-3689947435-line-5)">
</text><text class="terminal-3689947435-r8" x="0" y="166.4" textLength="12.2" clip-path="url(#terminal-3689947435-line-6)">│</text><text class="terminal-3689947435-r9" x="48.8" y="166.4" textLength="219.6" clip-path="url(#terminal-3689947435-line-6)">Observe&#160;the&#160;result</text><text class="terminal-3689947435-r8" x="963.8" y="166.4" textLength="12.2" clip-path="url(#terminal-3689947435-line-6)">│</text><text class="terminal-3689947435-r1" x="976" y="166.4" textLength="12.2" clip-path="url(#terminal-3689947435-line-6)">
</text><text class="terminal-3689947435-r8" x="0" y="190.8" textLength="12.2" clip-path="url(#terminal-3689947435-line-7)">│</text><text class="terminal-3689947435-r8" x="963.8" y="190.8" textLength="12.2" clip-path="url(#terminal-3689947435-line-7)">│</text><text class="terminal-3689947435-r1" x="976" y="190.8" textLength="12.2" clip-path="url(#terminal-3689947435-line-7)">
</text><text class="terminal-3689947435-r8" x="0" y="215.2" textLength="12.2" clip-path="url(#terminal-3689947435-line-8)">│</text><text class="terminal-3689947435-r4" x="48.8" y="215.2" textLength="805.2" clip-path="url(#terminal-3689947435-line-8)">What&#160;actually&#160;happened?&#160;Report&#160;what&#160;you&#160;did&#160;and&#160;what&#160;you&#160;observed,</text><text class="terminal-3689947435-r8" x="963.8" y="215.2" textLength="12.2" clip-path="url(#terminal-3689947435-line-8)">│</text><text class="terminal-3689947435-r1" x="976" y="215.2" textLength="12.2" clip-path="url(#terminal-3689947435-line-8)">
</text><text class="terminal-3689947435-r8" x="0" y="239.6" textLength="12.2" clip-path="url(#terminal-3689947435-line-9)">│</text><text class="terminal-3689947435-r4" x="48.8" y="239.6" textLength="549" clip-path="url(#terminal-3689947435-line-9)">with&#160;numbers&#160;and&#160;the&#160;period&#160;if&#160;you&#160;have&#160;them.</text><text class="terminal-3689947435-r8" x="963.8" y="239.6" textLength="12.2" clip-path="url(#terminal-3689947435-line-9)">│</text><text class="terminal-3689947435-r1" x="976" y="239.6" textLength="12.2" clip-path="url(#terminal-3689947435-line-9)">
</text><text class="terminal-3689947435-r8" x="0" y="264" textLength="12.2" clip-path="url(#terminal-3689947435-line-10)">│</text><text class="terminal-3689947435-r11" x="927.2" y="264" textLength="24.4" clip-path="url(#terminal-3689947435-line-10)">▆▆</text><text class="terminal-3689947435-r8" x="963.8" y="264" textLength="12.2" clip-path="url(#terminal-3689947435-line-10)">│</text><text class="terminal-3689947435-r1" x="976" y="264" textLength="12.2" clip-path="url(#terminal-3689947435-line-10)">
</text><text class="terminal-3689947435-r8" x="0" y="288.4" textLength="12.2" clip-path="url(#terminal-3689947435-line-11)">│</text><text class="terminal-3689947435-r8" x="963.8" y="288.4" textLength="12.2" clip-path="url(#terminal-3689947435-line-11)">│</text><text class="terminal-3689947435-r1" x="976" y="288.4" textLength="12.2" clip-path="url(#terminal-3689947435-line-11)">
</text><text class="terminal-3689947435-r8" x="0" y="312.8" textLength="12.2" clip-path="url(#terminal-3689947435-line-12)">│</text><text class="terminal-3689947435-r12" x="48.8" y="312.8" textLength="854" clip-path="url(#terminal-3689947435-line-12)">──────────────────────────────────────────────────────────────────────</text><text class="terminal-3689947435-r8" x="963.8" y="312.8" textLength="12.2" clip-path="url(#terminal-3689947435-line-12)">│</text><text class="terminal-3689947435-r1" x="976" y="312.8" textLength="12.2" clip-path="url(#terminal-3689947435-line-12)">
</text><text class="terminal-3689947435-r8" x="0" y="337.2" textLength="12.2" clip-path="url(#terminal-3689947435-line-13)">│</text><text class="terminal-3689947435-r8" x="963.8" y="337.2" textLength="12.2" clip-path="url(#terminal-3689947435-line-13)">│</text><text class="terminal-3689947435-r1" x="976" y="337.2" textLength="12.2" clip-path="url(#terminal-3689947435-line-13)">
</text><text class="terminal-3689947435-r8" x="0" y="361.6" textLength="12.2" clip-path="url(#terminal-3689947435-line-14)">│</text><text class="terminal-3689947435-r13" x="48.8" y="361.6" textLength="292.8" clip-path="url(#terminal-3689947435-line-14)">What&#160;this&#160;step&#160;builds&#160;on</text><text class="terminal-3689947435-r8" x="963.8" y="361.6" textLength="12.2" clip-path="url(#terminal-3689947435-line-14)">│</text><text class="terminal-3689947435-r1" x="976" y="361.6" textLength="12.2" clip-path="url(#terminal-3689947435-line-14)">
</text><text class="terminal-3689947435-r8" x="0" y="386" textLength="12.2" clip-path="url(#terminal-3689947435-line-15)">│</text><text class="terminal-3689947435-r8" x="963.8" y="386" textLength="12.2" clip-path="url(#terminal-3689947435-line-15)">│</text><text class="terminal-3689947435-r1" x="976" y="386" textLength="12.2" clip-path="url(#terminal-3689947435-line-15)">
</text><text class="terminal-3689947435-r8" x="0" y="410.4" textLength="12.2" clip-path="url(#terminal-3689947435-line-16)">│</text><text class="terminal-3689947435-r4" x="48.8" y="410.4" textLength="61" clip-path="url(#terminal-3689947435-line-16)">Goal:</text><text class="terminal-3689947435-r5" x="109.8" y="410.4" textLength="756.4" clip-path="url(#terminal-3689947435-line-16)">&#160;Newcomers&#160;at&#160;our&#160;open&#160;evenings&#160;find&#160;a&#160;clear,&#160;no-pressure&#160;next</text><text class="terminal-3689947435-r8" x="963.8" y="410.4" textLength="12.2" clip-path="url(#terminal-3689947435-line-16)">│</text><text class="terminal-3689947435-r1" x="976" y="410.4" textLength="12.2" clip-path="url(#terminal-3689947435-line-16)">
</text><text class="terminal-3689947435-r8" x="0" y="434.8" textLength="12.2" clip-path="url(#terminal-3689947435-line-17)">╰</text><text class="terminal-3689947435-r8" x="12.2" y="434.8" textLength="951.6" clip-path="url(#terminal-3689947435-line-17)">──────────────────────────────────────────────────────────────────────────────</text><text class="terminal-3689947435-r8" x="963.8" y="434.8" textLength="12.2" clip-path="url(#terminal-3689947435-line-17)">╯</text><text class="terminal-3689947435-r1" x="976" y="434.8" textLength="12.2" clip-path="url(#terminal-3689947435-line-17)">
</text><text class="terminal-3689947435-r14" x="0" y="459.2" textLength="12.2" clip-path="url(#terminal-3689947435-line-18)">╭</text><text class="terminal-3689947435-r14" x="12.2" y="459.2" textLength="951.6" clip-path="url(#terminal-3689947435-line-18)">──────────────────────────────────────────────────────────────────────────────</text><text class="terminal-3689947435-r14" x="963.8" y="459.2" textLength="12.2" clip-path="url(#terminal-3689947435-line-18)">╮</text><text class="terminal-3689947435-r1" x="976" y="459.2" textLength="12.2" clip-path="url(#terminal-3689947435-line-18)">
</text><text class="terminal-3689947435-r14" x="0" y="483.6" textLength="12.2" clip-path="url(#terminal-3689947435-line-19)">│</text><text class="terminal-3689947435-r15" x="24.4" y="483.6" textLength="878.4" clip-path="url(#terminal-3689947435-line-19)">Answer&#160;as&#160;Mira&#160;&#160;·&#160;&#160;Enter:&#160;new&#160;line&#160;&#160;·&#160;&#160;Ctrl+S&#160;or&#160;Send:&#160;send&#160;to&#160;the&#160;guide</text><text class="terminal-3689947435-r14" x="963.8" y="483.6" textLength="12.2" clip-path="url(#terminal-3689947435-line-19)">│</text><text class="terminal-3689947435-r1" x="976" y="483.6" textLength="12.2" clip-path="url(#terminal-3689947435-line-19)">
</text><text class="terminal-3689947435-r14" x="0" y="508" textLength="12.2" clip-path="url(#terminal-3689947435-line-20)">│</text><text class="terminal-3689947435-r14" x="963.8" y="508" textLength="12.2" clip-path="url(#terminal-3689947435-line-20)">│</text><text class="terminal-3689947435-r1" x="976" y="508" textLength="12.2" clip-path="url(#terminal-3689947435-line-20)">
</text><text class="terminal-3689947435-r14" x="0" y="532.4" textLength="12.2" clip-path="url(#terminal-3689947435-line-21)">│</text><text class="terminal-3689947435-r14" x="963.8" y="532.4" textLength="12.2" clip-path="url(#terminal-3689947435-line-21)">│</text><text class="terminal-3689947435-r1" x="976" y="532.4" textLength="12.2" clip-path="url(#terminal-3689947435-line-21)">
</text><text class="terminal-3689947435-r14" x="0" y="556.8" textLength="12.2" clip-path="url(#terminal-3689947435-line-22)">│</text><text class="terminal-3689947435-r14" x="963.8" y="556.8" textLength="12.2" clip-path="url(#terminal-3689947435-line-22)">│</text><text class="terminal-3689947435-r1" x="976" y="556.8" textLength="12.2" clip-path="url(#terminal-3689947435-line-22)">
</text><text class="terminal-3689947435-r14" x="0" y="581.2" textLength="12.2" clip-path="url(#terminal-3689947435-line-23)">│</text><text class="terminal-3689947435-r14" x="963.8" y="581.2" textLength="12.2" clip-path="url(#terminal-3689947435-line-23)">│</text><text class="terminal-3689947435-r1" x="976" y="581.2" textLength="12.2" clip-path="url(#terminal-3689947435-line-23)">
</text><text class="terminal-3689947435-r14" x="0" y="605.6" textLength="12.2" clip-path="url(#terminal-3689947435-line-24)">│</text><text class="terminal-3689947435-r14" x="963.8" y="605.6" textLength="12.2" clip-path="url(#terminal-3689947435-line-24)">│</text><text class="terminal-3689947435-r1" x="976" y="605.6" textLength="12.2" clip-path="url(#terminal-3689947435-line-24)">
</text><text class="terminal-3689947435-r14" x="0" y="630" textLength="12.2" clip-path="url(#terminal-3689947435-line-25)">│</text><text class="terminal-3689947435-r14" x="963.8" y="630" textLength="12.2" clip-path="url(#terminal-3689947435-line-25)">│</text><text class="terminal-3689947435-r1" x="976" y="630" textLength="12.2" clip-path="url(#terminal-3689947435-line-25)">
</text><text class="terminal-3689947435-r14" x="0" y="654.4" textLength="12.2" clip-path="url(#terminal-3689947435-line-26)">│</text><text class="terminal-3689947435-r14" x="963.8" y="654.4" textLength="12.2" clip-path="url(#terminal-3689947435-line-26)">│</text><text class="terminal-3689947435-r1" x="976" y="654.4" textLength="12.2" clip-path="url(#terminal-3689947435-line-26)">
</text><text class="terminal-3689947435-r14" x="0" y="678.8" textLength="12.2" clip-path="url(#terminal-3689947435-line-27)">│</text><text class="terminal-3689947435-r2" x="36.6" y="678.8" textLength="73.2" clip-path="url(#terminal-3689947435-line-27)">&#160;Send&#160;</text><text class="terminal-3689947435-r4" x="134.2" y="678.8" textLength="170.8" clip-path="url(#terminal-3689947435-line-27)">&#160;Explain&#160;this&#160;</text><text class="terminal-3689947435-r4" x="317.2" y="678.8" textLength="158.6" clip-path="url(#terminal-3689947435-line-27)">&#160;Other&#160;moves&#160;</text><text class="terminal-3689947435-r4" x="488" y="678.8" textLength="85.4" clip-path="url(#terminal-3689947435-line-27)">&#160;Views&#160;</text><text class="terminal-3689947435-r4" x="597.8" y="678.8" textLength="109.8" clip-path="url(#terminal-3689947435-line-27)">&#160;Actions&#160;</text><text class="terminal-3689947435-r14" x="963.8" y="678.8" textLength="12.2" clip-path="url(#terminal-3689947435-line-27)">│</text><text class="terminal-3689947435-r1" x="976" y="678.8" textLength="12.2" clip-path="url(#terminal-3689947435-line-27)">
</text><text class="terminal-3689947435-r14" x="0" y="703.2" textLength="12.2" clip-path="url(#terminal-3689947435-line-28)">╰</text><text class="terminal-3689947435-r14" x="12.2" y="703.2" textLength="951.6" clip-path="url(#terminal-3689947435-line-28)">──────────────────────────────────────────────────────────────────────────────</text><text class="terminal-3689947435-r14" x="963.8" y="703.2" textLength="12.2" clip-path="url(#terminal-3689947435-line-28)">╯</text><text class="terminal-3689947435-r1" x="976" y="703.2" textLength="12.2" clip-path="url(#terminal-3689947435-line-28)">
</text><text class="terminal-3689947435-r16" x="0" y="727.6" textLength="48.8" clip-path="url(#terminal-3689947435-line-29)">&#160;^q&#160;</text><text class="terminal-3689947435-r5" x="48.8" y="727.6" textLength="146.4" clip-path="url(#terminal-3689947435-line-29)">Save&#160;&amp;&#160;quit&#160;</text><text class="terminal-3689947435-r16" x="195.2" y="727.6" textLength="48.8" clip-path="url(#terminal-3689947435-line-29)">&#160;^s&#160;</text><text class="terminal-3689947435-r5" x="244" y="727.6" textLength="61" clip-path="url(#terminal-3689947435-line-29)">Send&#160;</text><text class="terminal-3689947435-r16" x="305" y="727.6" textLength="48.8" clip-path="url(#terminal-3689947435-line-29)">&#160;^t&#160;</text><text class="terminal-3689947435-r5" x="353.8" y="727.6" textLength="73.2" clip-path="url(#terminal-3689947435-line-29)">Trees&#160;</text><text class="terminal-3689947435-r16" x="427" y="727.6" textLength="48.8" clip-path="url(#terminal-3689947435-line-29)">&#160;^n&#160;</text><text class="terminal-3689947435-r5" x="475.8" y="727.6" textLength="122" clip-path="url(#terminal-3689947435-line-29)">Next&#160;tree&#160;</text><text class="terminal-3689947435-r16" x="597.8" y="727.6" textLength="48.8" clip-path="url(#terminal-3689947435-line-29)">&#160;f1&#160;</text><text class="terminal-3689947435-r5" x="646.6" y="727.6" textLength="61" clip-path="url(#terminal-3689947435-line-29)">Help&#160;</text><text class="terminal-3689947435-r17" x="768.6" y="727.6" textLength="12.2" clip-path="url(#terminal-3689947435-line-29)">▏</text><text class="terminal-3689947435-r16" x="780.8" y="727.6" textLength="85.4" clip-path="url(#terminal-3689947435-line-29)">Actions</text><text class="terminal-3689947435-r5" x="866.2" y="727.6" textLength="97.6" clip-path="url(#terminal-3689947435-line-29)">&#160;palette</text>
    </g>
    </g>
</svg>
